<?xml version="1.0" encoding="UTF-8"?>
<svg width="600px" height="406px" viewBox="0 0 600 406" version="1.1" xmlns="http://www.w3.org/2000/svg" xmlns:xlink="http://www.w3.org/1999/xlink">
    <title>办公室场景</title>
    <defs>
        <polygon id="path-1" points="96.8292133 50.0003332 83.064092 56.0051831 75.43016 59.4622931 67.1801037 63.4905779 61.6950935 66.3765133 56.1274326 69.5780978 50.469607 73.0803006 44.9695695 76.822998 39.5521827 80.9339528 34.2174468 85.4206805 29.1607183 90.2155418 24.3294012 95.4462997 19.7234954 101.143016 16.5602224 105.599682 13.592306 110.364481 10.8347735 115.44493 8.27259749 120.87109 6.07859343 126.357373 4.14756931 132.23446 2.50206627 138.517382 1.15711173 145.243716 0.368171914 151.188442 0 156.772426 0.00751371253 162.010699 0.383199339 166.933323 1.11202945 171.90104 2.11886693 176.635778 3.39619806 181.160083 4.94402284 185.488986 7.39349312 191.140609 10.1735668 196.574285 13.2842437 201.797527 18.3785408 209.380623 23.8485236 216.730739 35.0815238 231.160416 40.4838831 238.472955 45.4429334 245.95835 48.4409047 251.121469 51.0857315 256.472474 53.3774138 262.011366 54.7899917 266.257599 55.9245623 270.691718 56.7660981 275.33627 57.3221129 280.191255 57.893155 285.04624 58.8323691 289.765947 60.1247276 294.357891 61.7852581 298.852134 63.7538508 303.218615 66.0079645 307.479879 68.5551131 311.635926 71.3877827 315.694273 75.482756 320.857391 79.9383876 325.825108 84.762191 330.589908 89.833947 335.106697 95.0935457 339.382992 100.548501 343.426308 106.161244 347.251675 111.766474 350.798971 117.371703 354.07571 125.862199 358.600015 133.871816 362.417867 141.761214 365.762245 148.67383 368.332531 155.278383 370.421828 160.417762 371.706971 172.064017 374.172041 180.922684 375.953204 192.907055 378.207841 205.868209 380.454963 221.33143 382.882455 237.568563 385.122061 255.714178 387.256451 268.036667 388.473955 280.945225 389.526119 294.447366 390.405427 307.949508 391.021695 321.767225 391.34486 335.908032 391.382437 350.041325 391.074303 364.234728 390.36785 378.480727 389.263078 389.157713 388.143275 399.721993 386.7454 410.18108 385.061938 420.550004 383.107919 430.873845 380.82322 440.964761 378.207841 450.837779 375.261782 460.4929 371.992559 468.156886 369.076561 475.595462 365.912554 482.831167 362.508052 489.864002 358.863056 496.693966 354.970049 503.381171 350.768909 509.797881 346.289697 515.959125 341.524897 521.872417 336.466995 527.537756 331.11599 532.895033 325.494428 537.959276 319.534671 542.730483 313.229203 547.208656 306.555477 551.408821 299.498464 556.781126 289.48036 561.334435 280.371626 565.151401 272.104624 568.299647 264.626745 571.275077 256.690422 573.596814 249.550739 575.332482 243.132539 576.549703 237.383214 577.451349 231.30321 577.872117 225.862019 577.864603 220.976972 577.488917 216.602977 576.68495 212.153826 575.565407 208.110511 574.130288 204.450483 572.409648 201.128651 570.343377 197.957129 568.029153 195.018585 565.466977 192.29799 562.641821 189.795343 558.599444 186.774129 554.226463 183.99341 549.492824 181.44567 542.106845 178.041168 534.270043 174.907223 518.303404 169.030136 510.406492 165.956314 502.892779 162.641998 498.053948 160.176928 493.545721 157.49391 489.360583 154.585428 486.40018 152.172967 483.702758 149.557588 481.23826 146.739291 479.014201 143.695531 474.866632 136.924105 471.087234 129.987338 467.668495 122.870201 464.527763 115.61027 461.62747 108.312761 458.952588 100.962645 455.203246 89.8923772 451.694342 79.0550887 448.215493 68.3380475 444.70659 58.1996964 442.204523 51.5635482 439.56721 45.3332346 436.809678 39.4786939 434.525509 35.1798527 432.09858 31.1665988 429.52889 27.4314168 426.823954 23.9517604 423.856037 20.6750213 420.662709 17.7139314 417.228943 15.0609752 413.547224 12.6936063 409.670148 10.6418866 405.507551 8.74799156 401.044406 7.02695198 396.265685 5.47876791 389.841461 3.7802747 383.041551 2.38239976 375.843414 1.300174 368.600195 0.556143793 361.16162 0.120247307 353.512661 0 345.856188 0.18037096 338.192201 0.65384473 330.498159 1.42042131 322.841686 2.4801007 315.350515 3.81033653 308.024645 5.4111288 300.773912 7.31253934 293.883838 9.44692903 287.331881 11.8142979 280.91517 14.5198623 275.031933 17.4133131 269.644601 20.4871349 266.150725 22.4486691 262.206026 24.3200178 257.780449 26.0936655 252.821399 27.7620969 246.231873 29.6334456 239.011195 31.3469698 231.136825 32.9026693 219.152453 34.8191107 206.341573 36.4574803 193.342851 37.8102625 180.171313 38.9826737 154.391765 41.0494243 142.009167 42.0940728 130.738598 43.1988449 119.971448 44.5215653 110.97002 45.9945948 105.176948 47.2571915 100.518446 48.6024583"></polygon>
        <polygon id="path-3" points="0 15.3165007 67.0072883 15.3165007 66.3836502 12.8965236 65.4294087 10.7170412 64.1370501 8.74799156 62.4840334 6.95931287 60.4327898 5.33597423 57.9232099 3.87797564 54.8801563 2.60786346 51.228492 1.54818407 46.8705387 0.72148384 41.7161319 0.187886417 35.6375385 0 29.2058006 0.210432787 23.6155985 0.81166932 18.7842813 1.73607049 14.6216846 2.96108993 11.0601848 4.44163489 8.00961755 6.15515901 5.42490044 8.09414683 3.24592381 10.2585983 1.4426328 12.656029"></polygon>
        <polygon id="path-5" points="0 15.3165007 67.0072883 15.3165007 66.3836502 12.8965236 65.4294087 10.7170412 64.1370501 8.74799156 62.4840334 6.95931287 60.4327898 5.33597423 57.9232099 3.87797564 54.8801563 2.60786346 51.228492 1.54818407 46.8705387 0.72148384 41.7161319 0.187886417 35.6375385 0 29.2058006 0.210432787 23.6155985 0.81166932 18.7842813 1.73607049 14.6216846 2.96108993 11.0601848 4.44163489 8.00961755 6.15515901 5.42490044 8.09414683 3.24592381 10.2585983 1.4426328 12.656029"></polygon>
        <polygon id="path-7" points="1.67555789 72.7871978 0.631151852 81.1143238 0.0901645503 88.5245641 0 95.0930732 0.315575926 100.910037 0.984296341 106.035578 1.96859268 110.552368 3.23089639 114.513013 4.74866632 117.985154 6.50687505 121.021399 8.49800887 123.666839 10.7295815 125.951538 13.2015929 127.913072 15.9365843 129.558957 18.9721241 130.896709 22.3457811 131.926326 26.0876099 132.625264 51.333684 135.969642 64.4000301 137.390063 78.0148772 138.427196 87.1590653 138.795454 96.5587197 138.825516 106.236381 138.502351 113.442032 137.998815 120.820497 137.202177 128.371778 136.112436 136.110902 134.707045 144.270794 132.910851 151.236006 131.107142 157.141784 129.310947 162.957397 127.20662 167.826283 125.109807 171.846119 123.02051 175.685626 120.600533 178.841386 118.173041 181.403561 115.723002 183.672703 113.009922 185.52859 110.214172 187.001277 107.320721 188.173416 104.276961 189.112631 101.075377 189.81892 97.6934212 191.907732 86.1271334 194.304606 72.8999297 196.70148 59.3871386 198.752724 46.9640887 200.157788 37.0136241 200.939214 31.9406908 201.878428 27.4163859 202.83267 23.0874829 203.531445 19.4349709 203.801939 17.0525712 203.779397 15.0384288 203.493876 13.3324201 203.058081 12.144978 202.374333 11.107845 201.420092 10.1834438 200.157788 9.36425901 198.129086 8.54507423 193.876324 7.25993114 188.917274 6.02739625 182.162446 4.61449039 174.851604 3.3293473 166.18078 2.08929695 157.119243 1.09725667 147.126005 0.368257377 140.363664 0.0826700233 133.383425 0 126.185288 0.120247307 119.002179 0.47347377 111.789015 1.11228759 104.545796 2.02165784 97.3476595 3.25419274 90.2997971 4.83243864 83.3796679 6.75639554 66.1281839 12.3253489 52.5208506 17.1202103 43.8951086 20.4194958 36.7570817 23.3580393 30.918927 25.9659028 25.170937 28.7917145 20.6777369 31.2492688 17.251484 33.3836585 13.9679916 35.7585428 11.683823 37.7576543 10.1961079 39.4336011 8.79104365 41.6130836 7.34841085 44.7695754 5.87572319 49.1586021 4.41054925 55.065751 2.9979713 62.8217023"></polygon>
        <polygon id="path-9" points="1.67555789 72.7871978 0.631151852 81.1143238 0.0901645503 88.5245641 0 95.0930732 0.315575926 100.910037 0.984296341 106.035578 1.96859268 110.552368 3.23089639 114.513013 4.74866632 117.985154 6.50687505 121.021399 8.49800887 123.666839 10.7295815 125.951538 13.2015929 127.913072 15.9365843 129.558957 18.9721241 130.896709 22.3457811 131.926326 26.0876099 132.625264 51.333684 135.969642 64.4000301 137.390063 78.0148772 138.427196 87.1590653 138.795454 96.5587197 138.825516 106.236381 138.502351 113.442032 137.998815 120.820497 137.202177 128.371778 136.112436 136.110902 134.707045 144.270794 132.910851 151.236006 131.107142 157.141784 129.310947 162.957397 127.20662 167.826283 125.109807 171.846119 123.02051 175.685626 120.600533 178.841386 118.173041 181.403561 115.723002 183.672703 113.009922 185.52859 110.214172 187.001277 107.320721 188.173416 104.276961 189.112631 101.075377 189.81892 97.6934212 191.907732 86.1271334 194.304606 72.8999297 196.70148 59.3871386 198.752724 46.9640887 200.157788 37.0136241 200.939214 31.9406908 201.878428 27.4163859 202.83267 23.0874829 203.531445 19.4349709 203.801939 17.0525712 203.779397 15.0384288 203.493876 13.3324201 203.058081 12.144978 202.374333 11.107845 201.420092 10.1834438 200.157788 9.36425901 198.129086 8.54507423 193.876324 7.25993114 188.917274 6.02739625 182.162446 4.61449039 174.851604 3.3293473 166.18078 2.08929695 157.119243 1.09725667 147.126005 0.368257377 140.363664 0.0826700233 133.383425 0 126.185288 0.120247307 119.002179 0.47347377 111.789015 1.11228759 104.545796 2.02165784 97.3476595 3.25419274 90.2997971 4.83243864 83.3796679 6.75639554 66.1281839 12.3253489 52.5208506 17.1202103 43.8951086 20.4194958 36.7570817 23.3580393 30.918927 25.9659028 25.170937 28.7917145 20.6777369 31.2492688 17.251484 33.3836585 13.9679916 35.7585428 11.683823 37.7576543 10.1961079 39.4336011 8.79104365 41.6130836 7.34841085 44.7695754 5.87572319 49.1586021 4.41054925 55.065751 2.9979713 62.8217023"></polygon>
        <polygon id="path-11" points="0 0 75.1070704 0 72.0565031 42.0790419 69.4792997 44.9499463 65.6698475 48.4296028 60.3125704 52.6382585 53.0693516 57.6811299 45.9839207 62.1828885 38.8984897 66.3163896 31.7980314 70.0816334 24.6900594 73.4861353 6.67217672 73.4861353"></polygon>
        <polygon id="path-13" points="48.3582538 0 51.0556766 4.59945948 53.3849275 9.42438266 55.330979 14.4973159 56.9088587 19.8332901 58.1110527 25.4623672 58.9150199 31.3995779 59.3132467 37.6749843 59.2831918 44.318648 58.8023142 51.3606309 58.0208881 57.1325016 56.9614547 62.3482285 55.6390413 67.0529044 54.076189 71.2916219 52.1151101 75.5002777 49.973702 79.1903669 47.674506 82.4069823 45.2100083 85.1952168 42.4073935 87.7429566 39.5071005 89.8322535 36.5016154 91.485654 33.3683973 92.7407353 30.0924187 93.5974973 26.7413029 94.0258783 23.2925088 94.0409093 19.7234954 93.6125282 16.9434217 92.8985598 14.4338418 91.914035 12.1722143 90.6589538 10.1284845 89.1333161 7.68652791 86.7358854 5.59020212 84.0228055 3.83199339 80.9640147 2.42692915 77.7098219 1.34495454 74.3278664 0.586069577 70.8031172 0.135246825 67.2182444 0 63.7461034 0.150274251 60.3716634 0.608610715 57.0197697 1.32992712 54.028618 2.29168232 51.3606309 3.50139004 48.8654992 4.77872117 46.6935323 6.116162 44.8146681 8.38530318 42.2143201 10.8422872 39.9296213 13.4946277 37.8328089 16.3949207 35.7359964 22.6989255 31.2342379 26.0199865 28.6263744 29.6791645 25.4323054 33.6313773 21.5242679 37.2379593 17.4884677 40.4989105 13.3249047 43.4367721 9.02606346 46.0515441 4.58442857"></polygon>
        <polygon id="path-15" points="48.3582538 0 51.0556766 4.59945948 53.3849275 9.42438266 55.330979 14.4973159 56.9088587 19.8332901 58.1110527 25.4623672 58.9150199 31.3995779 59.3132467 37.6749843 59.2831918 44.318648 58.8023142 51.3606309 58.0208881 57.1325016 56.9614547 62.3482285 55.6390413 67.0529044 54.076189 71.2916219 52.1151101 75.5002777 49.973702 79.1903669 47.674506 82.4069823 45.2100083 85.1952168 42.4073935 87.7429566 39.5071005 89.8322535 36.5016154 91.485654 33.3683973 92.7407353 30.0924187 93.5974973 26.7413029 94.0258783 23.2925088 94.0409093 19.7234954 93.6125282 16.9434217 92.8985598 14.4338418 91.914035 12.1722143 90.6589538 10.1284845 89.1333161 7.68652791 86.7358854 5.59020212 84.0228055 3.83199339 80.9640147 2.42692915 77.7098219 1.34495454 74.3278664 0.586069577 70.8031172 0.135246825 67.2182444 0 63.7461034 0.150274251 60.3716634 0.608610715 57.0197697 1.32992712 54.028618 2.29168232 51.3606309 3.50139004 48.8654992 4.77872117 46.6935323 6.116162 44.8146681 8.38530318 42.2143201 10.8422872 39.9296213 13.4946277 37.8328089 16.3949207 35.7359964 22.6989255 31.2342379 26.0199865 28.6263744 29.6791645 25.4323054 33.6313773 21.5242679 37.2379593 17.4884677 40.4989105 13.3249047 43.4367721 9.02606346 46.0515441 4.58442857"></polygon>
        <polygon id="path-17" points="37.2154181 0 28.2741002 3.72766651 21.0684499 7.08707564 15.3505147 10.1082892 10.9023969 12.8288845 7.53625366 15.256377 5.05672853 17.428344 3.22338267 19.4950946 1.83334586 21.591907 0.849049515 23.7338122 0.240438801 25.9433564 0 28.2506016 0.1202194 30.693125 0.646179277 33.293473 1.61544819 36.0967384 3.45630776 38.6369627 5.37981817 40.6060124 7.40852055 42.0790419 9.55744233 43.1086594 11.8566384 43.7249269 14.3436772 43.9353597 17.0711549 43.7023805 20.0916673 42.9733812 22.2481028 42.1241346 24.1115035 41.1170634 25.7119243 39.9521676 27.0719062 38.6294473 28.6497859 36.600274 29.9346307 34.3832142 30.9489819 31.9632372 32.0610113 28.1453852 32.7898415 24.1847396 33.6464047 16.5264892 34.2625291 11.6564733 35.0740101 7.31253934 36.0658201 3.44207915"></polygon>
        <polygon id="path-19" points="37.2154181 0 28.2741002 3.72766651 21.0684499 7.08707564 15.3505147 10.1082892 10.9023969 12.8288845 7.53625366 15.256377 5.05672853 17.428344 3.22338267 19.4950946 1.83334586 21.591907 0.849049515 23.7338122 0.240438801 25.9433564 0 28.2506016 0.1202194 30.693125 0.646179277 33.293473 1.61544819 36.0967384 3.45630776 38.6369627 5.37981817 40.6060124 7.40852055 42.0790419 9.55744233 43.1086594 11.8566384 43.7249269 14.3436772 43.9353597 17.0711549 43.7023805 20.0916673 42.9733812 22.2481028 42.1241346 24.1115035 41.1170634 25.7119243 39.9521676 27.0719062 38.6294473 28.6497859 36.600274 29.9346307 34.3832142 30.9489819 31.9632372 32.0610113 28.1453852 32.7898415 24.1847396 33.6464047 16.5264892 34.2625291 11.6564733 35.0740101 7.31253934 36.0658201 3.44207915"></polygon>
        <polygon id="path-21" points="0 0 5.51506499 0.232979157 10.5717935 0.886823887 15.2227816 1.94650328 19.5055977 3.37444004 23.4578105 5.16311873 27.1019611 7.32005479 30.475618 9.83773278 33.2632053 12.4606272 35.7201893 15.3240161 37.8691111 18.4354152 39.6949433 21.7422161 41.1450898 25.1241716 42.2420918 28.5812817 42.9709219 32.1285772 43.2940116 35.5556255 43.2339019 38.9000037 42.7379968 42.1917737 41.8213239 45.2129873 40.4763694 48.0162526 39.1464423 49.9402095 37.7564054 51.4733627 36.3062589 52.6683203 34.7809753 53.5701751 32.5494027 54.4419681 30.2877752 54.9229573 27.9735517 55.0281737 25.6367871 54.8327718 23.3977008 54.4043908 21.248779 53.7505461 18.2207529 52.4578875 15.8238786 51.0750435 13.9980464 49.602014 12.1872417 47.6179334 10.4064918 45.0251009 8.91877677 42.2594128 7.59636336 39.0503128 6.45427906 35.3602236 5.63528439 31.5949798 5.12435194 27.5140869 4.92899542 23.0874829 4.71109775 17.7139314 4.08745961 12.75373 3.08813585 8.17681685 1.72064017 3.93058384"></polygon>
    </defs>
    <g id="页面-1" stroke="none" stroke-width="1" fill="none" fill-rule="evenodd">
        <g id="欢迎登录" transform="translate(-516.000000, -255.000000)">
            <g id="办公室场景" transform="translate(516.000000, 255.000000)">
                <g id="编组" transform="translate(0.000000, 14.617563)">
                    <polygon id="路径" fill="#F3F7FF" points="96.8292133 50.0003332 83.064092 56.0051831 75.43016 59.4622931 67.1801037 63.4905779 61.6950935 66.3765133 56.1274326 69.5780978 50.469607 73.0803006 44.9695695 76.822998 39.5521827 80.9339528 34.2174468 85.4206805 29.1607183 90.2155418 24.3294012 95.4462997 19.7234954 101.143016 16.5602224 105.599682 13.592306 110.364481 10.8347735 115.44493 8.27259749 120.87109 6.07859343 126.357373 4.14756931 132.23446 2.50206627 138.517382 1.15711173 145.243716 0.368171914 151.188442 0 156.772426 0.00751371253 162.010699 0.383199339 166.933323 1.11202945 171.90104 2.11886693 176.635778 3.39619806 181.160083 4.94402284 185.488986 7.39349312 191.140609 10.1735668 196.574285 13.2842437 201.797527 18.3785408 209.380623 23.8485236 216.730739 35.0815238 231.160416 40.4838831 238.472955 45.4429334 245.95835 48.4409047 251.121469 51.0857315 256.472474 53.3774138 262.011366 54.7899917 266.257599 55.9245623 270.691718 56.7660981 275.33627 57.3221129 280.191255 57.893155 285.04624 58.8323691 289.765947 60.1247276 294.357891 61.7852581 298.852134 63.7538508 303.218615 66.0079645 307.479879 68.5551131 311.635926 71.3877827 315.694273 75.482756 320.857391 79.9383876 325.825108 84.762191 330.589908 89.833947 335.106697 95.0935457 339.382992 100.548501 343.426308 106.161244 347.251675 111.766474 350.798971 117.371703 354.07571 125.862199 358.600015 133.871816 362.417867 141.761214 365.762245 148.67383 368.332531 155.278383 370.421828 160.417762 371.706971 172.064017 374.172041 180.922684 375.953204 192.907055 378.207841 205.868209 380.454963 221.33143 382.882455 237.568563 385.122061 255.714178 387.256451 268.036667 388.473955 280.945225 389.526119 294.447366 390.405427 307.949508 391.021695 321.767225 391.34486 335.908032 391.382437 350.041325 391.074303 364.234728 390.36785 378.480727 389.263078 389.157713 388.143275 399.721993 386.7454 410.18108 385.061938 420.550004 383.107919 430.873845 380.82322 440.964761 378.207841 450.837779 375.261782 460.4929 371.992559 468.156886 369.076561 475.595462 365.912554 482.831167 362.508052 489.864002 358.863056 496.693966 354.970049 503.381171 350.768909 509.797881 346.289697 515.959125 341.524897 521.872417 336.466995 527.537756 331.11599 532.895033 325.494428 537.959276 319.534671 542.730483 313.229203 547.208656 306.555477 551.408821 299.498464 556.781126 289.48036 561.334435 280.371626 565.151401 272.104624 568.299647 264.626745 571.275077 256.690422 573.596814 249.550739 575.332482 243.132539 576.549703 237.383214 577.451349 231.30321 577.872117 225.862019 577.864603 220.976972 577.488917 216.602977 576.68495 212.153826 575.565407 208.110511 574.130288 204.450483 572.409648 201.128651 570.343377 197.957129 568.029153 195.018585 565.466977 192.29799 562.641821 189.795343 558.599444 186.774129 554.226463 183.99341 549.492824 181.44567 542.106845 178.041168 534.270043 174.907223 518.303404 169.030136 510.406492 165.956314 502.892779 162.641998 498.053948 160.176928 493.545721 157.49391 489.360583 154.585428 486.40018 152.172967 483.702758 149.557588 481.23826 146.739291 479.014201 143.695531 474.866632 136.924105 471.087234 129.987338 467.668495 122.870201 464.527763 115.61027 461.62747 108.312761 458.952588 100.962645 455.203246 89.8923772 451.694342 79.0550887 448.215493 68.3380475 444.70659 58.1996964 442.204523 51.5635482 439.56721 45.3332346 436.809678 39.4786939 434.525509 35.1798527 432.09858 31.1665988 429.52889 27.4314168 426.823954 23.9517604 423.856037 20.6750213 420.662709 17.7139314 417.228943 15.0609752 413.547224 12.6936063 409.670148 10.6418866 405.507551 8.74799156 401.044406 7.02695198 396.265685 5.47876791 389.841461 3.7802747 383.041551 2.38239976 375.843414 1.300174 368.600195 0.556143793 361.16162 0.120247307 353.512661 0 345.856188 0.18037096 338.192201 0.65384473 330.498159 1.42042131 322.841686 2.4801007 315.350515 3.81033653 308.024645 5.4111288 300.773912 7.31253934 293.883838 9.44692903 287.331881 11.8142979 280.91517 14.5198623 275.031933 17.4133131 269.644601 20.4871349 266.150725 22.4486691 262.206026 24.3200178 257.780449 26.0936655 252.821399 27.7620969 246.231873 29.6334456 239.011195 31.3469698 231.136825 32.9026693 219.152453 34.8191107 206.341573 36.4574803 193.342851 37.8102625 180.171313 38.9826737 154.391765 41.0494243 142.009167 42.0940728 130.738598 43.1988449 119.971448 44.5215653 110.97002 45.9945948 105.176948 47.2571915 100.518446 48.6024583"></polygon>
                    <g id="Clipped">
                        <mask id="mask-2" fill="white">
                            <use xlink:href="#path-1"></use>
                        </mask>
                        <g id="路径"></g>
                        <polygon id="矩形-2" fill="#DBECFF" mask="url(#mask-2)" points="43.2339019 294.981674 600 294.981674 600 394.937248 43.2339019 394.937248"></polygon>
                        <polygon id="矩形" fill="#C2DDF9" mask="url(#mask-2)" points="43.2339019 294.981674 600 294.981674 600 285.21158 43.2339019 285.21158"></polygon>
                    </g>
                    <g id="Clipped" transform="translate(43.233902, 285.211580)"></g>
                </g>
                <polygon id="路径-425" fill="#C2DDF9" points="96.8292133 177.349746 98.9405665 309.599237 106.59704 309.599237 109.632579 177.3272"></polygon>
                <polygon id="矩形" fill="#C2DDF9" points="31.5876475 167.557106 379.472537 167.557106 380.794951 167.744993 381.937035 168.218467 382.921331 168.985043 383.695244 169.977083 384.168608 171.119433 384.356451 172.442153 384.356451 172.442153 384.168608 173.772389 383.695244 174.907223 382.921331 175.899263 381.937035 176.66584 380.794951 177.139314 379.472537 177.3272 31.5876475 177.3272 30.2577203 177.139314 29.1231497 176.66584 28.1313397 175.899263 27.364941 174.907223 26.8915771 173.772389 26.7037343 172.442153 26.7037343 172.442153 26.8915771 171.119433 27.364941 169.977083 28.1313397 168.985043 29.1231497 168.218467 30.2577203 167.744993"></polygon>
                <polygon id="路径-399" fill="#89ACFD" points="268.615223 168.308652 336.403937 168.308652 336.403937 166.339602 335.231798 164.603532 333.007739 162.123431 331.287099 160.522639 329.153205 158.839177 326.545946 157.058013 323.833496 155.509829 320.722819 154.089408 317.176347 152.81178 313.53971 151.872348 309.51236 151.263596 305.034187 151.023102 299.556691 151.210988 294.635209 151.729555 290.217146 152.548739 286.264934 153.638481 282.733489 154.968716 279.209557 156.742364 276.151476 158.764022 273.521677 161.03369 271.275077 163.551368 269.396649 166.339602 268.983395 167.181334"></polygon>
                <polygon id="路径" fill="#ADC4F8" points="269.396649 166.339602 336.403937 166.339602 335.780299 163.919625 334.826058 161.740143 333.533699 159.771093 331.880682 157.982415 329.829439 156.359076 327.319859 154.901077 324.276805 153.630965 320.625141 152.571286 316.267188 151.744586 311.112781 151.210988 305.034187 151.023102 298.602449 151.233534 293.012247 151.834771 288.18093 152.759172 284.018333 153.984192 280.456834 155.464737 277.406266 157.178261 274.821549 159.117249 272.642573 161.2817 270.839282 163.679131"></polygon>
                <g id="Clipped" transform="translate(269.396649, 151.023102)">
                    <mask id="mask-4" fill="white">
                        <use xlink:href="#path-3"></use>
                    </mask>
                    <g id="路径"></g>
                    <polygon id="椭圆形" fill="#D0DEFE" mask="url(#mask-4)" points="12.02194 6.01236533 11.8115561 6.88415831 11.2480277 7.60564215 10.429033 8.08663137 9.39214066 8.26700233 8.34773462 8.08663137 7.52873995 7.60564215 6.96521151 6.88415831 6.76234127 6.01236533 6.96521151 5.14057236 7.52873995 4.41908852 8.34773462 3.93809929 9.39214066 3.75772833 10.429033 3.93809929 11.2480277 4.41908852 11.8115561 5.14057236"></polygon>
                </g>
                <g id="Clipped" transform="translate(269.396649, 151.023102)">
                    <mask id="mask-6" fill="white">
                        <use xlink:href="#path-5"></use>
                    </mask>
                    <g id="路径"></g>
                    <path d="M9.39214066,3.75772833 L10.429033,3.93809929 L11.2480277,4.41908852 L11.8115561,5.14057236 L12.02194,6.01236533 L11.8115561,6.88415831 L11.2480277,7.60564215 L10.429033,8.08663137 L9.39214066,8.26700233 L8.34773462,8.08663137 L7.52873995,7.60564215 L6.96521151,6.88415831 L6.76234127,6.01236533 L6.96521151,5.14057236 L7.52873995,4.41908852 L8.34773462,3.93809929 L9.39214066,3.75772833 Z M9.39214066,4.509274 L8.63325569,4.63703676 L8.05469983,4.9602014 L7.65647306,5.44870608 L7.51371253,6.01236533 L7.65647306,6.57602458 L8.05469983,7.06452927 L8.63325569,7.3876939 L9.39214066,7.51545667 L10.1435119,7.3876939 L10.7295815,7.06452927 L11.1278083,6.57602458 L11.2705688,6.01236533 L11.1278083,5.44870608 L10.7295815,4.9602014 L10.1435119,4.63703676 L9.39214066,4.509274 Z" id="椭圆形" fill="#FFFFFF" fill-rule="nonzero" mask="url(#mask-6)"></path>
                </g>
                <polygon id="路径-400" fill="#89ACFD" points="296.70148 153.488171 295.071005 154.788345 312.044481 154.788345 311.661282 153.488171"></polygon>
                <g id="编组-2" transform="translate(271.650763, 0.000000)">
                    <polygon id="路径-287" fill="#FFD07A" points="1.93102412 3.42704824 6.40168307 2.31476065 10.8272597 1.66843138 15.2453227 1.49557588 19.6708994 1.77364777 24.1190172 2.51016253 27.7857089 3.44207915 30.6484334 4.35896487 32.82741 5.26081967 34.9387632 6.35807634 36.4715606 7.35763208 37.5460215 8.25948688 38.8458938 9.76257821 39.4695319 10.927474 40.6792396 13.9035948 41.453152 16.0605309 42.2420918 18.6834253 42.8582162 21.426567 43.2113607 24.2373477 43.2489293 26.1237274 43.0535728 27.8823442 42.6403186 29.5357447 41.6560222 32.1210618 40.1607934 35.5030173 38.395071 38.9826737 36.2386355 42.6727629 33.8041927 46.2200585 31.1368247 49.4141276 29.168232 51.3380845 27.1695845 52.8862686 25.118341 54.0962571 2.87023818 5.03535597"></polygon>
                    <polygon id="路径-288" fill="#FFF1D7" points="1.17965287 5.99733442 4.69607033 9.43189812 7.88939815 13.1219873 10.76715 17.082633 13.3443534 21.328866 15.6210083 25.8832328 17.5820873 30.7607641 19.2426178 35.991522 20.5800586 41.6055681 21.5718687 47.6329643 22.2180479 54.0962571 16.5376813 45.7390693 12.2698926 38.9075192 9.16672928 33.3836585 7.03283492 28.9720854 5.24457134 24.3425641 3.65166429 19.0291363 2.28416861 12.9416164"></polygon>
                    <polygon id="路径-291" fill="#CEE6FF" points="48.1854384 21.772278 50.2892779 30.0768576 51.9422947 38.2687053 53.1444887 46.3478213 53.9033737 54.3367517 54.2414907 62.2354966 54.1513262 70.0666025 53.6403937 77.8375847 52.7162071 85.5634741 51.3637388 93.2442709 49.582989 100.902521 47.3739575 108.545741 44.721617 116.173929 41.6184537 123.809633 38.0494402 131.460368 33.9995492 139.126134 29.4462394 146.814446 24.3819971 154.547851 39.6423473 154.45015 44.8869186 142.801192 49.0194605 132.692903 52.1752198 123.967458 54.4819295 116.474547 56.0522954 110.086409 57.6827711 101.518789 58.9450748 93.5073118 59.8617477 86.021917 60.455331 79.0400578 60.89864 69.548036 60.9437223 61.1006627 60.6431738 53.6152679 60.0270494 46.1073266 59.2681644 39.7342194 58.38906 34.3832142 56.8111804 26.8452112 55.4812533 21.9150716 54.1663536 17.9018178 53.7005034 16.7895302 49.4477421 20.8403613"></polygon>
                    <polygon id="路径-290" fill="#FFBB3C" points="35.6375385 6.08000444 39.8301901 3.96816112 43.1061688 2.63792529 45.6382899 1.92395691 47.569314 1.66843138 49.0269742 1.75861686 50.1390037 2.11935878 51.1458412 2.81078079 52.1677061 3.96064566 53.1970847 5.69671615 54.233977 8.19184777 55.2558419 11.6489578 55.4286573 13.2948428 55.1656774 14.8806042 54.4819295 16.3386028 53.4149823 17.5936841 43.4367721 26.4619229 43.4367721 26.4619229"></polygon>
                    <polygon id="路径-290" fill="#FFC251" points="36.8171914 7.28999297 41.1601172 5.22324238 44.3834999 4.07337751 46.7352919 3.59238829 48.4333909 3.59238829 49.6355849 3.93058384 50.7100458 4.6821295 51.7920204 6.00484988 52.8815088 8.10917774 53.9559696 11.2581541 54.181381 12.9716782 53.9259148 14.6325941 53.2121121 16.1582318 52.0700278 17.4584058 43.7147795 24.5830588 43.7147795 24.5830588"></polygon>
                    <polygon id="路径-287" fill="#FBC869" points="0 2.11935878 3.92215794 1.04464848 7.81426103 0.345711007 11.6763093 0 15.5458712 0.0150309133 19.4229469 0.375772833 23.3225637 1.09725667 27.1770982 2.13438969 30.1825832 3.1564918 32.4817792 4.15604754 34.6908107 5.37355152 36.3062589 6.4858391 37.4333158 7.4929103 38.8008115 9.16134168 39.4620182 10.4615157 40.7318356 13.7683166 41.5433166 16.1657473 42.3773386 19.0892599 43.0235179 22.1330199 43.3992035 25.2669653 43.4292584 27.3637777 43.2263882 29.3253119 42.7905928 31.1590833 41.7537005 34.0450187 40.1833346 37.802747 38.3274476 41.6732072 36.0658201 45.7766466 33.5036442 49.7222613 30.7010294 53.2770723 28.6272447 55.4264929 26.5234052 57.1475325 24.3819971 58.4852838 0.984296341 3.90803747"></polygon>
                    <polygon id="路径-288" fill="#FFE4B3" points="0 2.11935878 3.71177399 5.75683981 7.12299947 9.64984636 10.2261627 13.7983784 13.0438049 18.217467 15.5684124 22.9296583 17.8074987 27.9499833 19.7460365 33.293473 21.3915396 38.9977046 22.7214667 45.0777091 23.7207904 51.5635482 24.3819971 58.4852838 18.4311368 50.5264152 13.7350665 43.7549887 10.1209708 38.0282107 7.42354798 33.2258339 5.50755128 29.2200955 4.40303554 26.2740365 3.28349237 22.3058754 2.15643549 17.1202103 1.05191975 10.4765466"></polygon>
                </g>
                <polygon id="路径-273" fill="#77AAE3" points="345.089789 254.879197 347.990082 377.057976 348.20798 378.485913 348.771508 379.740994 349.620558 380.808189 350.710046 381.634889 351.97235 382.160971 353.399955 382.348858 354.820047 382.160971 356.074837 381.627374 357.141784 380.800674 357.968292 379.733479 358.501766 378.478398 358.697122 377.057976 358.697122 254.879197 358.697122 254.879197"></polygon>
                <polygon id="路径-274" fill="#AFD0F3" points="376.677436 253.376106 391.652265 391.532746 391.952814 392.772796 392.501315 393.832476 393.297768 394.741846 394.289578 395.440783 395.401608 395.869164 396.671425 396.034504 397.805996 395.869164 398.782779 395.46333 399.631828 394.80197 400.293035 393.952723 400.698775 392.975714 400.856563 391.84088 400.84905 391.517715 389.969194 250.738181 389.969194 250.738181"></polygon>
                <polygon id="路径-275" fill="#77AAE3" points="404.951537 245.665247 446.284469 384.310392 446.742806 385.317463 447.388985 386.106586 448.238034 386.715338 449.207303 387.091111 450.221655 387.196327 451.318657 387.030987 451.393794 387.008441 452.430686 386.512421 453.257194 385.83603 453.888346 384.964237 454.286573 383.957166 454.414306 382.905002 454.279059 381.762652 417.657224 242.711673 417.657224 242.711673"></polygon>
                <polygon id="路径-276" fill="#AFD0F3" points="293.117439 249.024657 253.287249 378.538521 253.174544 379.710933 253.497633 380.785643 254.203922 381.657436 255.233301 382.221095 256.104891 382.348858 257.284544 382.221095 258.366519 381.8829 259.358329 381.31924 260.214892 380.567695 260.89864 379.66584 261.417086 378.59113 305.890751 252.241272 306.117545 251.868952"></polygon>
                <polygon id="路径" fill="#FFFFFF" points="258.464197 188.803302 257.419791 197.130428 256.878804 204.540669 256.788639 211.109178 257.104215 216.926141 257.772936 222.051683 258.757232 226.568472 260.019536 230.529118 261.537306 234.001259 263.295514 237.037503 265.286648 239.682944 267.518221 241.967643 269.990232 243.929177 272.725224 245.575062 275.760763 246.912813 279.13442 247.942431 282.876249 248.641368 308.122323 251.985747 321.188669 253.406168 334.803516 254.443301 343.947705 254.811558 353.347359 254.84162 363.025021 254.518455 370.230671 254.01492 377.609137 253.218281 385.160418 252.12854 392.899542 250.72315 401.059433 248.926956 408.024645 247.123246 413.930423 245.327052 419.746037 243.222724 424.614922 241.125912 428.634758 239.036615 432.474266 236.616638 435.630025 234.189145 438.192201 231.739106 440.461342 229.026026 442.317229 226.230277 443.789917 223.336826 444.962056 220.293066 445.90127 217.091481 446.607559 213.709526 448.696371 202.143238 451.093245 188.916034 453.490119 175.403243 455.541363 162.980193 456.946427 153.029729 457.727853 147.956795 458.667067 143.43249 459.621309 139.103587 460.320084 135.451075 460.590578 133.068676 460.568037 131.054533 460.282516 129.348525 459.84672 128.161083 459.162972 127.12395 458.208731 126.199548 456.946427 125.380364 454.917725 124.561179 450.664964 123.276036 445.705913 122.043501 438.951086 120.630595 431.640243 119.345452 422.969419 118.105402 413.907882 117.113361 403.914644 116.384362 397.152303 116.098775 390.172064 116.016105 382.973927 116.136352 375.790818 116.489578 368.577654 117.128392 361.334435 118.037762 354.136299 119.270297 347.088436 120.848543 340.168307 122.7725 322.916823 128.341453 309.30949 133.136315 300.683748 136.4356 293.545721 139.374144 287.707566 141.982007 281.959576 144.807819 277.466376 147.265373 274.040123 149.399763 270.756631 151.774647 268.472462 153.773759 266.984747 155.449706 265.579683 157.629188 264.13705 160.78568 262.664362 165.174707 261.199189 171.081856 259.786611 178.837807"></polygon>
                <g id="Clipped" transform="translate(256.788639, 116.016105)">
                    <mask id="mask-8" fill="white">
                        <use xlink:href="#path-7"></use>
                    </mask>
                    <g id="路径"></g>
                    <polygon id="路径-346" fill="#ECF5FF" mask="url(#mask-8)" points="16.6729281 125.230054 35.8629499 118.32335 51.2735743 113.197808 63.4533023 109.560327 72.8980389 107.155381 80.058607 105.73496 85.859193 105.036022 93.5081524 104.630188 103.381171 104.630188 115.868961 105.126208 131.407318 106.253526 150.484634 108.139906 148.395822 134.722076 52.6485837 148.843619 12.8484484 134.722076"></polygon>
                </g>
                <g id="Clipped" transform="translate(256.788639, 116.016105)">
                    <mask id="mask-10" fill="white">
                        <use xlink:href="#path-9"></use>
                    </mask>
                    <g id="路径"></g>
                    <polygon id="路径-272" fill="#AFD0F3" mask="url(#mask-10)" points="-0.0150274251 98.8958943 1.36749568 103.720817 3.03553986 108.027174 4.9815914 111.867572 7.18310917 115.294621 9.64760688 118.32335 12.3825982 121.006368 15.395597 123.343675 18.7166579 125.365333 22.3608085 127.063826 26.3806447 128.439154 30.7987076 129.468772 36.3212863 130.385658 43.0310316 131.272482 50.078894 132.016512 57.8480727 132.677872 65.7900669 133.196438 73.9724998 133.572211 82.1624465 133.782644 90.119468 133.820221 97.9262153 133.662397 105.01916 133.30917 111.789015 132.700418 117.379217 131.896264 120.970772 131.152234 123.773386 130.333049 125.929822 129.468772 129.476294 127.574877 132.857465 125.40291 136.080848 122.967902 139.131415 120.299915 141.956571 117.504165 144.563829 114.558106 146.990758 111.461738 149.13968 108.372885 151.010594 105.291548 152.686152 102.089963 154.023593 99.0687498 155.045458 96.1978453 156.037268 93.4020954 157.870614 88.9604606 160.064618 84.0979601 162.919829 78.1682648 166.068074 72.0055903 169.689684 65.3243493 173.551732 58.620562 177.669246 51.939321 181.997145 45.4609974 186.355098 39.5388175 189.420693 35.7585428 192.381095 32.4592573 195.24382 29.6184147 198.316928 26.9955203 201.172139 25.0490171 203.82448 23.6887194 186.204824 139.509422 15.2002404 152.458554 -4.67352919 126.011662"></polygon>
                </g>
                <path d="M340.055601,122.411758 L325.636787,127.033764 L313.434518,131.227389 L303.215869,135.022694 L293.109926,139.141165 L285.137877,142.77113 L278.976632,145.965199 L274.310617,148.760949 L270.846795,151.210988 L268.374784,153.345378 L266.691712,155.216727 L265.264107,157.433786 L263.798933,160.62034 L262.311218,165.039428 L260.83853,170.984155 L259.410925,178.770168 L258.096025,188.75821 L257.036592,197.122913 L256.495604,204.563215 L256.412954,211.169301 L256.736043,217.008811 L257.412277,222.17193 L258.404087,226.711266 L259.681419,230.701973 L261.22173,234.204176 L263.00248,237.270482 L265.016154,239.93847 L267.270268,242.245715 L269.772335,244.229795 L272.544894,245.890711 L275.618003,247.251009 L279.029228,248.295657 L282.823653,249.009626 L294.545045,250.602903 L308.347735,252.384066 L319.963934,253.676724 L330.347885,254.556033 L340.446315,255.074599 L349.590503,255.25497 L358.501766,255.104661 L367.180104,254.631187 L375.835901,253.812003 L384.431588,252.632076 L392.974679,251.091407 L402.194004,249.054718 L409.985724,246.980452 L416.51514,244.898671 L421.414081,243.027322 L425.666842,241.103365 L429.32602,239.141831 L432.451724,237.150235 L435.472237,234.827959 L438.071981,232.400466 L440.273499,229.860242 L442.121872,227.192255 L443.677211,224.336381 L444.992111,221.26256 L446.059058,217.948243 L446.870539,214.36337 L451.393794,189.397023 L452.768803,181.671134 L455.586445,165.144645 L457.246976,153.653512 L457.322113,153.074821 L457.92321,148.986413 L458.839883,144.394469 L460.139755,138.419681 L460.733338,135.496168 L460.943722,133.835252 L460.988805,132.272037 L460.906154,130.543482 L460.605605,129.092999 L460.1097,127.875495 L459.38087,126.793269 L458.396574,125.853837 L457.119243,125.049683 L454.865129,124.125282 L450.912916,122.915294 L446.434743,121.803006 L440.731836,120.585502 L434.683297,119.473215 L427.905928,118.40602 L420.963258,117.481619 L413.787662,116.722557 L404.951537,116.061197 L396.303253,115.69294 L387.835299,115.632816 L379.374859,115.888342 L371.19994,116.474547 L363.288001,117.368887 L355.436171,118.631483 L347.952513,120.239791 L340.822,122.178779 L340.055601,122.411758 Z M413.720039,117.474103 L414.862123,117.57932 L421.849876,118.353412 L428.589676,119.262782 L435.156661,120.322461 L440.994816,121.404687 L446.502367,122.584614 L450.815238,123.666839 L454.617176,124.831735 L456.773612,125.718559 L457.900669,126.417497 L458.764746,127.229166 L459.410925,128.168598 L459.854234,129.220762 L460.139755,130.483359 L460.237433,132.001481 L460.222406,133.06116 L460.147269,134.316242 L459.876775,135.992188 L459.283192,138.863093 L458.223758,143.695531 L457.262003,148.407723 L456.623338,152.556255 L456.427981,154.164563 L454.654745,166.166747 L451.694342,183.429751 L449.590503,195.131317 L446.239387,213.641887 L445.593208,216.760801 L444.796754,219.616675 L443.85754,222.217023 L442.715456,224.727185 L441.370501,227.072008 L439.822676,229.274037 L438.079495,231.318241 L436.06582,233.302321 L433.751597,235.226278 L430.708543,237.353152 L427.064393,239.472511 L422.744008,241.561808 L417.657224,243.628559 L410.894883,245.898227 L402.682395,248.145348 L392.824405,250.354892 L384.499211,251.865499 L376.121422,253.02288 L367.691036,253.842064 L359.230596,254.323054 L350.559772,254.503425 L341.663536,254.368146 L340.476369,254.323054 L330.776167,253.827033 L320.843039,253.007849 L309.827936,251.805376 L296.889323,250.159491 L282.921331,248.265595 L279.232099,247.581689 L275.903524,246.574618 L272.905553,245.251897 L270.200616,243.628559 L267.766173,241.689571 L265.564655,239.427418 L263.596063,236.81204 L261.860395,233.798341 L260.357653,230.356262 L259.110376,226.418163 L258.133594,221.938951 L257.479901,216.835956 L257.164325,211.05657 L257.254489,204.525638 L257.795477,197.152975 L258.839883,188.855911 L258.967616,187.706046 L260.275002,178.1539 L261.665039,170.713598 L263.092644,165.039428 L264.520249,160.823257 L265.925314,157.787013 L267.285296,155.675169 L268.930799,153.848913 L271.372755,151.744586 L274.806522,149.324608 L279.449996,146.55892 L285.573672,143.394913 L293.508152,139.787494 L303.576527,135.69157 L313.757608,131.911295 L325.907281,127.732701 L340.281013,123.133242 L347.426553,121.141646 L354.940266,119.495761 L362.837178,118.188072 L370.794199,117.26367 L379.029228,116.662434 L387.557292,116.391877 L396.092869,116.444486 L404.808776,116.805227 L413.720039,117.474103 Z" id="路径-271" fill="#AFD0F3" fill-rule="nonzero"></path>
                <polygon id="路径" fill="#C2DDF9" points="454.008566 305.473252 529.115636 305.473252 526.065069 347.552294 523.487865 350.423198 519.678413 353.902854 514.321136 358.11151 507.077917 363.154382 499.992486 367.65614 492.907055 371.789641 485.806597 375.554885 478.698625 378.959387 460.680742 378.959387"></polygon>
                <g id="Clipped" transform="translate(454.008566, 305.473252)">
                    <mask id="mask-12" fill="white">
                        <use xlink:href="#path-11"></use>
                    </mask>
                    <g id="路径"></g>
                    <polygon id="路径-277" fill="#FFDC9C" mask="url(#mask-12)" points="0 0 78.1426103 0 77.0080397 13.527822 1.02937862 13.527822"></polygon>
                </g>
                <g id="Clipped" transform="translate(458.516793, 306.976343)"></g>
                <polygon id="路径" fill="#EDFFF5" points="546.697723 107.087742 549.395146 111.687202 551.724397 116.512125 553.670449 121.585058 555.248328 126.921032 556.450522 132.550109 557.254489 138.48732 557.652716 144.762726 557.622661 151.40639 557.141784 158.448373 556.360358 164.220244 555.300924 169.435971 553.978511 174.140646 552.415659 178.379364 550.45458 182.58802 548.313172 186.278109 546.013976 189.494724 543.549478 192.282959 540.746863 194.830699 537.84657 196.919996 534.841085 198.573396 531.707867 199.828477 528.431888 200.685239 525.080772 201.11362 521.631978 201.128651 518.062965 200.70027 515.282891 199.986302 512.773311 199.001777 510.511684 197.746696 508.467954 196.221058 506.025997 193.823627 503.929672 191.110548 502.171463 188.051757 500.766399 184.797564 499.684424 181.415608 498.925539 177.890859 498.474716 174.305986 498.33947 170.833845 498.489744 167.459405 498.94808 164.107512 499.669397 161.11636 500.631152 158.448373 501.84086 155.953241 503.118191 153.781274 504.455632 151.90241 506.724773 149.302062 509.181757 147.017363 511.834097 144.920551 514.73439 142.823738 521.038395 138.32198 524.359456 135.714116 528.018634 132.520047 531.970847 128.61201 535.577429 124.57621 538.83838 120.412647 541.776242 116.113805 544.391014 111.672171"></polygon>
                <g id="Clipped" transform="translate(498.339470, 107.087742)">
                    <mask id="mask-14" fill="white">
                        <use xlink:href="#path-13"></use>
                    </mask>
                    <g id="路径"></g>
                    <polygon id="路径-282" fill="#D3F0E0" mask="url(#mask-14)" points="46.1041401 -0.751545667 48.8015629 3.84791381 51.1308137 8.67283699 53.0768653 13.7457702 54.6547449 19.0817445 55.8569389 24.7108215 56.6609062 30.6480323 57.0591329 36.9234386 57.0290781 43.5671023 56.5482005 50.6090852 55.7667744 56.3809559 54.7073409 61.5966828 53.3849275 66.3013587 51.8220753 70.5400763 49.8609963 74.748732 47.7195882 78.4388212 45.4203922 81.6554367 42.9558945 84.4436711 40.1532797 86.9914109 37.2529867 89.0807079 34.2475017 90.7341083 31.1142836 91.9891896 27.8383049 92.8459516 24.4871891 93.2743327 21.0383951 93.2893636 17.4693816 92.8609826 14.689308 92.1470142 12.179728 91.1624894 9.91810053 89.9074081 7.87437073 88.3817704 5.43241416 85.9843397 3.33608836 83.2712599 1.57787963 80.212469 0.172815388 76.9582763 -0.909159216 73.5763208 -1.66804418 70.0515716 -2.11886693 66.4666988 -2.25411376 62.9945578 -2.10383951 59.6201177 -1.64550304 56.2682241 -0.924186641 53.2770723 0.0375685626 50.6090852 1.24727628 48.1139536 2.52460741 45.9419866 3.86204824 44.0631224 6.13118942 41.4627744 8.58817342 39.1780756 11.2405139 37.0812632 14.140807 34.9844508 20.4448118 30.4826922 23.7658727 27.8748288 27.4250507 24.6807597 31.3772635 20.7727222 34.9838455 16.736922 38.2447968 12.573359 41.1826584 8.27451779 43.7974303 3.8328829"></polygon>
                </g>
                <g id="Clipped" transform="translate(498.339470, 107.087742)">
                    <mask id="mask-16" fill="white">
                        <use xlink:href="#path-15"></use>
                    </mask>
                    <g id="路径"></g>
                    <polygon id="路径-348" fill="#C6E3D3" mask="url(#mask-16)" points="38.6279961 15.7448817 32.5193478 22.8995965 26.7037343 29.2576728 21.143587 34.8717189 15.8464197 39.794343 13.1715381 42.312021 10.7821775 44.9649772 8.64828312 47.7607271 6.82996469 50.7443634 5.34976332 54.0060716 4.20767901 57.5608826 3.64415057 60.2739625 3.31354722 63.2425678 3.2384101 66.4892451 3.43376662 70.0440561 3.87707566 73.4560735 4.64347434 77.2363482 5.75550379 81.4224575 7.26576001 86.0519788 -9.69268916 80.295139 -4.35795326 53.7580615 -0.939214066 38.2085817 1.12705688 30.1144349 2.28416861 26.6047166 2.87023818 25.5149754 3.84702081 24.8460997 6.50687505 23.7488431 12.074536 22.0353189 22.1429108 19.4575173"></polygon>
                </g>
                <polygon id="路径" fill="#EDFFF5" points="538.43264 234.053867 529.491322 237.781533 522.285671 241.140943 516.567736 244.162156 512.119618 246.882751 508.753475 249.310244 506.27395 251.482211 504.440604 253.548962 503.050567 255.645774 502.066271 257.787679 501.45766 259.997223 501.217221 262.304469 501.337441 264.746992 501.863401 267.34734 502.83267 270.150605 504.673529 272.69083 506.59704 274.659879 508.625742 276.132909 510.774664 277.162526 513.07386 277.778794 515.560899 277.989227 518.288376 277.756247 521.308889 277.027248 523.465324 276.178002 525.328725 275.17093 526.929146 274.006035 528.289128 272.683314 529.867007 270.654141 531.151852 268.437081 532.166203 266.017104 533.278233 262.199252 534.007063 258.238606 534.863626 250.580356 535.479751 245.71034 536.291231 241.366406 537.283042 237.495946"></polygon>
                <g id="Clipped" transform="translate(501.217221, 234.053867)">
                    <mask id="mask-18" fill="white">
                        <use xlink:href="#path-17"></use>
                    </mask>
                    <g id="路径"></g>
                    <polygon id="路径-283" fill="#D3F0E0" mask="url(#mask-18)" points="35.7502442 0.00751545667 26.8089263 3.73518196 19.5957623 7.09459109 13.877827 10.1158047 9.43722293 12.8288845 6.06356601 15.2638925 3.59155459 17.4358595 1.75069502 19.50261 0.368171914 21.5994225 -0.616124427 23.7413276 -1.22473514 25.9508719 -1.47268765 28.2581171 -1.34495454 30.7006405 -0.818994665 33.3009885 0.150274251 36.1042538 1.98362011 38.6444782 3.91464423 40.6135278 5.94334661 42.0865573 8.09226839 43.1161749 10.3839507 43.7324423 12.8709896 43.9428751 15.5984672 43.7023805 18.6264934 42.9808967 20.7829288 42.1316501 22.6463296 41.1245789 24.2467503 39.9596831 25.6067323 38.6369627 27.1770982 36.6077894 28.4694568 34.3907297 29.4838079 31.9707527 30.5883237 28.1529007 31.3246675 24.192255 32.173717 16.5340047 32.7898415 11.6639887 33.6088361 7.32005479 34.6006462 3.44207915"></polygon>
                </g>
                <g id="Clipped" transform="translate(501.217221, 234.053867)">
                    <mask id="mask-20" fill="white">
                        <use xlink:href="#path-19"></use>
                    </mask>
                    <g id="路径"></g>
                    <polygon id="路径-338" fill="#C6E3D3" mask="url(#mask-20)" points="24.5472988 5.28336604 19.1223984 8.32712599 14.6442257 11.273185 11.0000751 14.1140276 8.09226839 16.8571693 5.81561349 19.5101255 4.10248704 22.0954426 2.88526561 24.6281515 2.10383951 27.1232831 1.73566759 29.6108993 1.75820873 32.1285772 2.18649034 34.7063789 3.05056729 37.3668505 4.38800811 40.1475695 -4.43309039 29.5207138 6.26643625 9.06364074 24.9229844 2.41246159"></polygon>
                </g>
                <polygon id="路径" fill="#EDFFF5" points="443.647156 195.522121 449.162221 195.7551 454.21895 196.408945 458.869938 197.468624 463.152754 198.896561 467.104967 200.685239 470.749117 202.842175 474.122774 205.359853 476.910361 207.982748 479.367345 210.846137 481.516267 213.957536 483.342099 217.264337 484.792246 220.646292 485.889248 224.103402 486.618078 227.650698 486.941168 231.077746 486.881058 234.422124 486.385153 237.713894 485.46848 240.735108 484.123525 243.538373 482.793598 245.46233 481.403561 246.995483 479.953415 248.190441 478.428131 249.092296 476.196559 249.964089 473.934931 250.445078 471.620708 250.550294 469.283943 250.354892 467.044857 249.926511 464.895935 249.272667 461.867909 247.980008 459.471035 246.597164 457.645202 245.124135 455.834398 243.140054 454.053648 240.547222 452.565933 237.781533 451.243519 234.572433 450.101435 230.882344 449.28244 227.1171 448.771508 223.036207 448.576151 218.609603 448.358254 213.236052 447.734616 208.275851 446.735292 203.698937 445.367796 199.452704"></polygon>
                <g id="Clipped" transform="translate(443.647156, 195.522121)">
                    <mask id="mask-22" fill="white">
                        <use xlink:href="#path-21"></use>
                    </mask>
                    <g id="路径"></g>
                    <polygon id="路径-285" fill="#D3F0E0" mask="url(#mask-22)" points="-1.50274251 1.50309133 4.01232249 1.73607049 9.06905102 2.38991522 13.7200391 3.44959461 18.0028552 4.87753138 21.955068 6.66621006 25.5992186 8.82314613 28.9728755 11.3408241 31.7604628 13.9637185 34.2174468 16.8271075 36.3663686 19.9385065 38.1922008 23.2453075 39.6423473 26.627263 40.7393493 30.084373 41.4681794 33.6316686 41.7912691 37.0587168 41.7311594 40.403095 41.2352543 43.6948651 40.3185814 46.7160786 38.9736269 49.519344 37.6436998 51.4433009 36.2536629 52.976454 34.8035164 54.1714116 33.2782328 55.0732664 31.0466602 55.9450594 28.7850327 56.4260486 26.4708092 56.531265 24.1340446 56.3358632 21.8949583 55.9074821 19.7460365 55.2536374 16.7180104 53.9609789 14.3211361 52.5781348 12.4953039 51.1051053 10.6844992 49.1210248 8.90374934 46.5281922 7.41603426 43.7625042 6.09362086 40.5534042 4.95153655 36.8633149 4.13254189 33.0980712 3.62160944 29.0171782 3.42625291 24.5905742 3.20835525 19.2170227 2.58471711 14.2568213 1.58539334 9.67990819 0.217897663 5.43367517"></polygon>
                </g>
                <polygon id="路径-278" fill="#A9C7B6" fill-rule="nonzero" points="528.845142 245.372145 529.108122 245.259413 529.378616 245.364629 529.491322 245.62767 529.38613 245.898227 525.76452 249.918996 521.977609 254.728888 518.017883 260.418089 513.885341 267.084299 509.557442 274.825219 505.041701 283.746066 500.330603 293.974603 495.416635 305.616045 495.221279 305.818963 494.928244 305.826478 494.725374 305.623561 494.725374 305.337973 495.409122 303.646996 500.225411 292.35878 504.846345 282.430862 509.279435 273.742994 513.532196 266.197475 517.612142 259.674059 521.519273 254.090074 525.261102 249.355337"></polygon>
                <polygon id="路径-280" fill="#A9C7B6" fill-rule="nonzero" points="546.352093 124.711488 546.554963 124.516086 546.840484 124.516086 547.043354 124.719003 547.043354 125.004591 535.53986 152.157936 518.055451 193.139721 505.612743 221.984044 502.592231 229.454407 499.864753 237.315575 497.43031 245.605124 495.311443 254.330569 493.508152 263.529488 492.042978 273.216912 490.923435 283.415386 490.172064 294.162489 489.803892 305.480767 489.691186 305.743808 489.420693 305.849024 489.157713 305.736293 489.052521 305.473252 489.413179 294.245159 490.157037 283.588242 491.254039 273.449891 492.696671 263.822591 494.469908 254.67628 496.551206 245.988412 498.940567 237.736441 501.630476 229.890304 504.598392 222.434971 509.71523 210.628189 524.968067 175.065048"></polygon>
                <polygon id="路径-281" fill="#A9C7B6" fill-rule="nonzero" points="453.738072 202.797083 454.001052 202.684351 454.271546 202.789567 458.32895 207.043316 462.175971 211.665322 465.805094 216.678131 469.223833 222.096775 472.424675 227.958832 475.407619 234.279331 478.157638 241.088334 480.667218 248.430936 482.921331 256.322165 484.912465 264.807116 486.610564 273.93088 488.008115 283.716005 489.082576 294.207582 489.803892 305.458221 489.706214 305.728777 489.443234 305.849024 489.17274 305.751324 489.052521 305.495798 488.331204 294.282737 487.264257 283.821221 485.87422 274.066158 484.176121 264.987487 482.200015 256.532598 479.953415 248.678946 477.458862 241.373922 474.723871 234.602495 471.763468 228.319574 468.585168 222.495095 465.196484 217.106512 461.589902 212.138795 457.772936 207.546851 453.745586 203.33068 453.63288 203.067639"></polygon>
                <polygon id="路径-286" fill="#A9C7B6" points="475.805846 236.263411 471.801037 234.489763 468.179427 232.520714 464.92599 230.348747 462.003156 227.973863 459.395898 225.403576 461.882936 228.522491 464.505222 231.182962 467.255241 233.422569 470.155534 235.263855 473.206101 236.7444 476.444511 237.856688 476.166504 237.082596"></polygon>
                <polygon id="路径-286" fill="#A9C7B6" points="467.488166 219.661767 468.156886 215.408019 468.352243 211.417311 468.10429 207.659583 467.443084 204.104772 468.570141 207.667099 469.186265 211.086631 469.336539 214.385917 469.028477 217.602532 468.269592 220.76654 467.878879 220.247973"></polygon>
                <polygon id="路径-286" fill="#A9C7B6" points="518.844391 190.374033 524.404538 188.652993 529.551431 186.661397 534.307611 184.414276 538.710647 181.911629 542.775565 179.160971 546.524908 176.154789 542.730483 180.010218 538.83838 183.324534 534.848599 186.1278 530.746112 188.457591 526.508378 190.32894 522.127883 191.764392 517.582087 192.763948 518.145616 191.591537"></polygon>
                <polygon id="路径-286" fill="#A9C7B6" points="528.326696 167.624745 533.481103 166.016438 538.16966 164.115027 542.437448 161.928029 546.322038 159.46296 549.838455 156.712302 546.900594 159.673392 543.880081 162.213617 540.776918 164.370553 537.591104 166.159231 534.300098 167.594684 530.888872 168.699456 527.349914 169.466032 527.785709 168.564178"></polygon>
                <polygon id="路径-286" fill="#A9C7B6" points="522.939364 180.498723 520.271996 175.809078 518.138102 171.217134 516.507626 166.70786 515.350515 162.251194 514.644226 157.847136 514.779473 162.018215 515.252836 165.933768 516.04929 169.623857 517.168833 173.111029 518.596439 176.410314 520.332106 179.536744 522.405891 182.512865 522.691412 181.558402"></polygon>
                <polygon id="路径-286" fill="#A9C7B6" points="534.382749 153.119914 532.391615 149.580134 530.9039 146.130539 529.882035 142.763615 529.288451 139.434268 529.476294 142.906409 530.062364 146.100478 531.016605 149.046537 532.346532 151.774647 534.059659 154.329903 534.232474 153.751212"></polygon>
                <polygon id="路径-286" fill="#A9C7B6" points="540.972274 138.532413 545.059734 137.194661 548.703885 135.556292 551.942295 133.632335 554.812533 131.422791 552.145165 134.045685 549.380119 136.150013 546.502367 137.780867 543.496882 138.968309 540.341123 139.72737 540.61913 139.141165"></polygon>
                <polygon id="路径-286" fill="#A9C7B6" points="512.029454 269.940173 516.071831 268.459628 519.655872 266.693495 522.819145 264.656806 525.614246 262.349561 523.037043 265.062641 520.347134 267.26467 517.529491 268.993225 514.569089 270.285884 511.43587 271.157677 511.69885 270.563955"></polygon>
                <polygon id="路径-286" fill="#A9C7B6" points="517.379217 260.455666 517.168833 256.14931 517.386731 252.166118 518.025396 248.453482 519.054775 244.981341 517.56706 248.415905 516.590277 251.745252 516.101886 255.014476 516.071831 258.246122 516.492599 261.470253 516.935908 260.996779"></polygon>
                <polygon id="椭圆形" stroke="#979797" stroke-width="0.751371253" fill="#D8D8D8" points="146.547449 124.719003 146.412202 126.161971 146.051544 127.477176 145.465474 128.702195 144.684048 129.806968 143.744834 130.7464 142.640319 131.535523 141.415583 132.114213 140.09317 132.474955 138.658051 132.610233 137.215418 132.474955 135.893005 132.114213 134.675783 131.535523 133.563754 130.7464 132.62454 129.806968 131.843114 128.702195 131.257044 127.477176 130.9039 126.161971 130.768653 124.719003 130.9039 123.276036 131.257044 121.960831 131.843114 120.735811 132.62454 119.631039 133.563754 118.691607 134.675783 117.902484 135.893005 117.323794 137.215418 116.963052 138.658051 116.827774 140.09317 116.963052 141.415583 117.323794 142.640319 117.902484 143.744834 118.691607 144.684048 119.631039 145.465474 120.735811 146.051544 121.960831 146.412202 123.276036"></polygon>
                <polygon id="矩形" stroke="#979797" stroke-width="0.751371253" fill="#D8D8D8" points="157.818018 119.833957 198.392066 119.833957 198.978135 119.954204 199.451499 120.277368 199.774589 120.750842 199.894808 121.337048 199.894808 121.337048 199.774589 121.923253 199.451499 122.396727 198.978135 122.719892 198.392066 122.840139 157.818018 122.840139 157.224435 122.719892 156.751071 122.396727 156.435495 121.923253 156.315275 121.337048 156.315275 121.337048 156.435495 120.750842 156.751071 120.277368 157.224435 119.954204"></polygon>
                <polygon id="矩形" stroke="#979797" stroke-width="0.751371253" fill="#D8D8D8" points="157.818018 126.597868 178.105042 126.597868 178.691111 126.718115 179.164475 127.041279 179.487565 127.514753 179.607784 128.100959 179.607784 128.100959 179.487565 128.687164 179.164475 129.160638 178.691111 129.483803 178.105042 129.60405 157.818018 129.60405 157.224435 129.483803 156.751071 129.160638 156.435495 128.687164 156.315275 128.100959 156.315275 128.100959 156.435495 127.514753 156.751071 127.041279 157.224435 126.718115"></polygon>
                <polygon id="矩形" fill="#77AAE3" points="109.354572 57.831439 253.617853 57.831439 254.797505 58.0719337 255.744233 58.7107475 256.382899 59.657695 256.623338 60.8376217 256.623338 146.513828 256.382899 147.693754 255.744233 148.640702 254.797505 149.279516 253.617853 149.52001 109.354572 149.52001 108.174919 149.279516 107.228191 148.640702 106.589526 147.693754 106.349087 146.513828 106.349087 60.8376217 106.589526 59.657695 107.228191 58.7107475 108.174919 58.0719337"></polygon>
                <polygon id="矩形" fill="#FFFFFF" points="113.8628 61.5891674 249.109625 61.5891674 250.289278 61.829662 251.236006 62.4684758 251.874671 63.4154233 252.11511 64.59535 252.11511 142.756099 251.874671 143.936026 251.236006 144.882974 250.289278 145.521787 249.109625 145.762282 113.8628 145.762282 112.683147 145.521787 111.736419 144.882974 111.097753 143.936026 110.857315 142.756099 110.857315 64.59535 111.097753 63.4154233 111.736419 62.4684758 112.683147 61.829662"></polygon>
                <polygon id="矩形" fill-opacity="0.6" fill="#FBC869" points="126.636111 72.8623524 184.491697 72.8623524 184.491697 105.930362 126.636111 105.930362"></polygon>
                <polygon id="矩形" fill="#E0EFFF" points="124.381997 70.6077154 182.237584 70.6077154 182.237584 103.675725 124.381997 103.675725"></polygon>
                <polygon id="矩形" fill="#D9ECFF" points="178.480727 229.183851 196.513637 229.183851 197.69329 229.424346 198.640018 230.063159 199.278684 231.010107 199.519122 232.190034 199.519122 250.22713 199.278684 251.407056 198.640018 252.354004 197.69329 252.992818 196.513637 253.233312 178.480727 253.233312 177.301074 252.992818 176.354347 252.354004 175.715681 251.407056 175.475242 250.22713 175.475242 232.190034 175.715681 231.010107 176.354347 230.063159 177.301074 229.424346"></polygon>
                <polyline id="路径-427" stroke="#CEE6FF" stroke-width="3.00548501" stroke-linecap="round" points="187.745135 238.953945 187.880382 234.534856 187.669998 230.363778 187.12901 226.433194 186.279961 222.713043 185.115335 219.180778 184.108498 216.182111 183.454805 213.356299 183.116688 210.688312 183.116688 208.01281 183.492374 205.532709 184.236231 203.195402 185.355774 201.03095 186.92614 199.001777 188.999925 197.085336 191.501991 195.086224 193.778646 192.996927 195.108573 191.471289 196.183034 189.787827 197.02457 187.916478 197.512961 185.947429 197.640694 183.595091 197.332632 180.78431 196.626343 178.033653 195.333985 174.651697 193.282741 170.510681 190.615373 165.227315 188.751972 160.672948 187.836795 157.8077 187.533469 155.386374 187.449948 152.393625 187.745135 150.404718"></polyline>
                <polygon id="矩形" fill="#AFD0F3" points="182.237584 238.953945 192.756781 238.953945 193.936434 239.194439 194.883162 239.833253 195.521827 240.780201 195.762266 241.960127 195.762266 253.233312 195.521827 254.413239 194.883162 255.360187 193.936434 255.999 192.756781 256.239495 182.237584 256.239495 181.057931 255.999 180.111203 255.360187 179.472537 254.413239 179.232099 253.233312 179.232099 241.960127 179.472537 240.780201 180.111203 239.833253 181.057931 239.194439"></polygon>
                <polygon id="路径-426" fill="#A4C3FC" points="185.551131 235.218763 186.302502 235.218763 186.302502 237.4734 185.551131 237.4734 185.551131 236.864648 185.213014 236.999926 184.829814 236.947318 184.439101 236.594091 184.363964 236.143164 184.521752 235.782422 184.724622 235.594536 185.010144 235.496835 185.551131 235.617082"></polygon>
                <polygon id="路径-426" fill="#A4C3FC" points="189.751296 235.218763 188.999925 235.218763 188.999925 237.4734 189.751296 237.4734 189.751296 236.864648 190.089413 236.999926 190.465099 236.947318 190.863326 236.594091 190.938463 236.143164 190.773161 235.782422 190.570291 235.594536 190.292283 235.496835 189.751296 235.617082"></polygon>
                <polyline id="路径-428" stroke="#FBC869" stroke-width="0.751371253" points="121.399053 103.675725 124.359456 99.7601718 127.177098 96.6938655 129.882035 94.349043 132.474266 92.6280034 134.991359 91.4555922 137.455857 90.7566547 139.905327 90.5086446 142.377339 90.6890156 146.56999 91.222613 150.026298 91.3879531 152.866481 91.2601903 155.180705 90.8844175 157.502442 90.1554182 159.410925 89.1633779 160.966263 87.9233275 162.221053 86.4127207 164.670524 82.6925697 166.143211 80.7460664 168.029153 78.7770168 169.456759 77.6046055 171.19994 76.4923179 173.303779 75.4476695 175.497783 74.6435156 178.20272 73.97464 181.486212 73.4861353"></polyline>
                <polygon id="矩形" fill="#CEE6FF" points="193.508152 75.868535 237.087685 75.868535 237.673755 75.9887823 238.147118 76.311947 238.470208 76.7854208 238.590428 77.3716264 238.590428 77.3716264 238.470208 77.957832 238.147118 78.4313058 237.673755 78.7544704 237.087685 78.8747177 193.508152 78.8747177 192.914569 78.7544704 192.441205 78.4313058 192.125629 77.957832 192.00541 77.3716264 192.00541 77.3716264 192.125629 76.7854208 192.441205 76.311947 192.914569 75.9887823"></polygon>
                <polygon id="矩形" fill="#CEE6FF" points="193.508152 84.4348942 237.839056 84.4348942 238.425126 84.5551415 238.89849 84.8783062 239.221579 85.3517799 239.341799 85.9379855 239.341799 85.9379855 239.221579 86.5241912 238.89849 86.9976649 238.425126 87.3208296 237.839056 87.4410769 193.508152 87.4410769 192.914569 87.3208296 192.441205 86.9976649 192.125629 86.5241912 192.00541 85.9379855 192.00541 85.9379855 192.125629 85.3517799 192.441205 84.8783062 192.914569 84.5551415"></polygon>
                <polygon id="矩形" fill="#CEE6FF" points="193.508152 93.4534422 228.07123 93.4534422 228.6573 93.5736895 229.130663 93.8968542 229.453753 94.3703279 229.573972 94.9565335 229.573972 94.9565335 229.453753 95.5427392 229.130663 96.0162129 228.6573 96.3393776 228.07123 96.4596249 193.508152 96.4596249 192.914569 96.3393776 192.441205 96.0162129 192.125629 95.5427392 192.00541 94.9565335 192.00541 94.9565335 192.125629 94.3703279 192.441205 93.8968542 192.914569 93.5736895"></polygon>
                <polygon id="矩形" fill="#DEEEFF" points="125.133368 114.197364 203.275979 114.197364 203.275979 135.240643 125.133368 135.240643"></polygon>
                <polygon id="椭圆形" fill="#85B1E1" points="146.923135 124.719003 146.780374 126.22961 146.404689 127.612454 145.796078 128.890082 144.969569 130.054978 143.985273 131.031987 142.828161 131.858687 141.55083 132.467439 140.168307 132.843212 138.658051 132.986006 137.147795 132.843212 135.765272 132.467439 134.48794 131.858687 133.323315 131.031987 132.339019 130.054978 131.520024 128.890082 130.911413 127.612454 130.528214 126.22961 130.392967 124.719003 130.528214 123.208397 130.911413 121.825553 131.520024 120.547925 132.339019 119.383029 133.323315 118.398504 134.48794 117.57932 135.765272 116.970568 137.147795 116.594795 138.658051 116.452001 140.168307 116.594795 141.55083 116.970568 142.828161 117.57932 143.985273 118.398504 144.969569 119.383029 145.796078 120.547925 146.404689 121.825553 146.780374 123.208397"></polygon>
                <path d="M134.149823,122.652253 L134.232474,122.283995 L134.450372,121.990893 L134.773462,121.787975 L135.171688,121.712821 L142.1369,121.712821 L142.54264,121.787975 L142.86573,121.990893 L143.083628,122.283995 L143.166278,122.652253 L143.166278,126.785754 L143.083628,127.154011 L142.86573,127.447114 L142.54264,127.650031 L142.1369,127.725186 L135.171688,127.725186 L134.773462,127.650031 L134.450372,127.447114 L134.232474,127.154011 L134.149823,126.785754 L134.149823,122.652253 Z M142.347284,124.065159 L138.868435,125.9816 L138.447667,125.9816 L134.968818,124.065159 L134.968818,126.785754 L135.171688,126.97364 L142.1369,126.97364 L142.287174,126.921032 L142.347284,126.785754 L142.347284,124.065159 L142.347284,124.065159 Z M142.01668,123.373737 L142.242092,123.133242 L142.347284,122.840139 L142.347284,122.652253 L142.144414,122.464366 L135.171688,122.464366 L134.968818,122.652253 L134.968818,122.840139 L135.066496,123.133242 L135.299421,123.373737 L138.658051,125.222539 L142.01668,123.373737 L142.01668,123.373737 Z" id="形状" fill="#FFFFFF" fill-rule="nonzero"></path>
                <polygon id="矩形" fill="#85B1E1" points="153.30979 119.458184 194.635209 119.458184 195.371553 119.608493 195.965136 120.006812 196.363363 120.600533 196.513637 121.337048 196.513637 121.337048 196.363363 122.073563 195.965136 122.667284 195.371553 123.065603 194.635209 123.215912 153.30979 123.215912 152.573447 123.065603 151.979863 122.667284 151.581636 122.073563 151.431362 121.337048 151.431362 121.337048 151.581636 120.600533 151.979863 120.006812 152.573447 119.608493"></polygon>
                <polygon id="矩形" fill="#85B1E1" points="153.30979 126.222095 178.105042 126.222095 178.841386 126.372404 179.434969 126.770723 179.833196 127.364444 179.98347 128.100959 179.98347 128.100959 179.833196 128.837474 179.434969 129.431195 178.841386 129.829514 178.105042 129.979823 153.30979 129.979823 152.573447 129.829514 151.979863 129.431195 151.581636 128.837474 151.431362 128.100959 151.431362 128.100959 151.581636 127.364444 151.979863 126.770723 152.573447 126.372404"></polygon>
                <polygon id="矩形" fill="#FBC869" points="210.789691 114.197364 237.087685 114.197364 237.087685 135.240643 210.789691 135.240643"></polygon>
                <polygon id="椭圆形" fill="#FFFFFF" points="231.076715 124.343231 230.956496 125.643405 230.625892 126.838362 230.099932 127.943134 228.987903 129.393617 227.537756 130.505905 226.433241 131.039502 225.23856 131.362667 223.938688 131.482914 222.631302 131.362667 221.436622 131.039502 220.332106 130.505905 218.889473 129.393617 217.76993 127.943134 217.24397 126.838362 216.920881 125.643405 216.800661 124.343231 216.920881 123.043057 217.24397 121.848099 217.76993 120.743327 218.889473 119.292844 220.332106 118.180556 221.436622 117.646959 222.631302 117.323794 223.938688 117.203547 225.23856 117.323794 226.433241 117.646959 227.537756 118.180556 228.987903 119.292844 230.099932 120.743327 230.625892 121.848099 230.956496 123.043057"></polygon>
                <g id="对号" transform="translate(217.279916, 117.807191)" fill="#77AAE3" fill-rule="nonzero">
                    <rect id="矩形" opacity="0" x="1.15574423" y="1.15497246" width="10.4016981" height="10.3947522"></rect>
                    <g>
                        <rect id="矩形" opacity="0" x="0" y="0" width="13.8689308" height="13.8596695"></rect>
                        <path d="M5.50819911,9.23956705 C5.36190606,9.23503008 5.22307237,9.17398283 5.12089066,9.06926174 L2.80869989,6.77022479 C2.58883974,6.54233629 2.58883974,6.18144792 2.80869989,5.95355942 C2.91630531,5.84530784 3.06268148,5.78443202 3.21536741,5.78443202 C3.36805334,5.78443202 3.51442951,5.84530784 3.62203493,5.95355942 L5.50819911,7.85007388 L10.3262243,3.63516574 C10.4326407,3.52616739 10.5785748,3.46470474 10.7309591,3.46470474 C10.8833434,3.46470474 11.0292775,3.52616739 11.1356939,3.63516574 C11.2440178,3.74269929 11.3049343,3.88897772 11.3049343,4.04156169 C11.3049343,4.19414567 11.2440178,4.34042409 11.1356939,4.44795765 L5.91486663,9.06926174 C5.80721256,9.17758562 5.66096888,9.23882994 5.50819911,9.23956705 L5.50819911,9.23956705 Z" id="路径"></path>
                    </g>
                </g>
            </g>
        </g>
    </g>
</svg>