<?xml version="1.0" encoding="UTF-8"?>
<svg width="19px" height="19px" viewBox="0 0 19 19" version="1.1" xmlns="http://www.w3.org/2000/svg" xmlns:xlink="http://www.w3.org/1999/xlink">
    <title>失败</title>
    <g id="页面-1" stroke="none" stroke-width="1" fill="none" fill-rule="evenodd">
        <g id="提示" transform="translate(-501.000000, -429.000000)" fill="#F56C6C" fill-rule="nonzero">
            <g id="新增" transform="translate(460.000000, 346.000000)">
                <g id="失败" transform="translate(41.000000, 83.000000)">
                    <path d="M9.5,0 C4.25328935,0 0,4.25328935 0,9.5 C0,14.7467107 4.2533079,19 9.5,19 C14.7467107,19 19,14.7466921 19,9.5 C19,4.25328935 14.7467107,0 9.5,0 Z M13.911869,12.8622541 C14.2017155,13.1521006 14.2017155,13.6220225 13.911869,13.911869 C13.7669365,14.0568015 13.5770083,14.1292585 13.3870616,14.1292585 C13.1971148,14.1292585 13.0071681,14.0568015 12.8622541,13.911869 L9.50000928,10.5496242 L6.13776444,13.9118504 C5.99283194,14.0567829 5.80290375,14.1292585 5.612957,14.1292585 C5.42301025,14.1292585 5.23306351,14.0567829 5.08814956,13.9118504 C4.7983031,13.622004 4.7983031,13.152082 5.08814956,12.8622356 L8.45039439,9.50000928 L5.08814956,6.13776444 C4.7983031,5.84791799 4.7983031,5.37797745 5.08814956,5.08814956 C5.37799601,4.7983031 5.84791799,4.7983031 6.13776444,5.08814956 L9.50000928,8.45039439 L12.8622541,5.088131 C13.1521006,4.79828455 13.6220225,4.79828455 13.911869,5.088131 C14.2017155,5.37797745 14.2017155,5.84789944 13.911869,6.13774589 L10.5496242,9.50000928 L13.911869,12.8622541 L13.911869,12.8622541 Z" id="形状"></path>
                </g>
            </g>
        </g>
    </g>
</svg>