<?xml version="1.0" encoding="UTF-8"?>
<svg width="16px" height="16px" viewBox="0 0 16 16" version="1.1" xmlns="http://www.w3.org/2000/svg" xmlns:xlink="http://www.w3.org/1999/xlink">
    <g id="页面-1" stroke="none" stroke-width="1" fill="none" fill-rule="evenodd">
        <g id="控制中心_员工列表" transform="translate(-168.000000, -19.000000)">
            <g id="编组-4" transform="translate(168.000000, 18.000000)">
                <g id="icon_kongzhi" transform="translate(0.000000, 1.000000)">
                    <rect id="矩形" fill-opacity="0" fill="#FFFFFF" x="0" y="0" width="16" height="16"></rect>
                    <path d="M13.90625,2 L2.09375,2 C1.48968855,2 1,2.47969491 1,3.07142857 L1,10.7244898 C1,11.3162235 1.48968855,11.7959184 2.09375,11.7959184 L13.90625,11.7959184 C14.5103114,11.7959184 15,11.3162235 15,10.7244898 L15,3.07142857 C15,2.47969491 14.5103114,2 13.90625,2 L13.90625,2 Z M13.75,9.95918367 C13.75,10.2973172 13.470178,10.5714286 13.125,10.5714286 L11.125,10.5714286 L11.125,7.02040816 C11.125,6.68227464 10.845178,6.40816327 10.5,6.40816327 C10.154822,6.40816327 9.875,6.68227464 9.875,7.02040816 L9.875,10.5714286 L8.625,10.5714286 L8.625,5.79591837 C8.625,5.45778485 8.34517797,5.18367347 8,5.18367347 C7.65482203,5.18367347 7.375,5.45778485 7.375,5.79591837 L7.375,10.5714286 L6.125,10.5714286 L6.125,8 C6.125,7.66186648 5.84517797,7.3877551 5.5,7.3877551 C5.15482203,7.3877551 4.875,7.66186648 4.875,8 L4.875,10.5714286 L2.875,10.5714286 C2.52982203,10.5714286 2.25,10.2973172 2.25,9.95918367 L2.25,3.83673469 C2.25,3.49860117 2.52982203,3.2244898 2.875,3.2244898 L13.125,3.2244898 C13.470178,3.2244898 13.75,3.49860117 13.75,3.83673469 L13.75,9.95918367 Z M10.875,12.7755102 L5.125,12.7755102 C4.77982203,12.7755102 4.5,13.0496216 4.5,13.3877551 C4.5,13.7258886 4.77982203,14 5.125,14 L10.875,14 C11.220178,14 11.5,13.7258886 11.5,13.3877551 C11.5,13.0496216 11.220178,12.7755102 10.875,12.7755102 L10.875,12.7755102 Z" id="形状" fill="#48576A" fill-rule="nonzero"></path>
                </g>
            </g>
        </g>
    </g>
</svg>