<?xml version="1.0" encoding="UTF-8"?>
<svg width="12px" height="14px" viewBox="0 0 12 14" version="1.1" xmlns="http://www.w3.org/2000/svg" xmlns:xlink="http://www.w3.org/1999/xlink">
    <title>形状</title>
    <g id="页面-1" stroke="none" stroke-width="1" fill="none" fill-rule="evenodd">
        <g id="客户名称/会议编码-回填样式" transform="translate(-845.000000, -313.000000)" fill="#3D74FF" fill-rule="nonzero">
            <g id="编组" transform="translate(352.000000, 281.000000)">
                <g id="删除" transform="translate(493.000000, 32.333328)">
                    <path d="M1.16667188,2.66667187 L0.5,2.66667187 C0.223857625,2.66667187 0,2.44281425 0,2.16667187 C0,1.8905295 0.223857625,1.66667187 0.5,1.66667187 L11.5,1.66667187 C11.7761424,1.66667187 12,1.8905295 12,2.16667187 C12,2.44281425 11.7761424,2.66667187 11.5,2.66667187 L2.16667187,2.66667187 L2.16667187,11.5 C2.16666773,11.7210151 2.25446272,11.9329794 2.41074251,12.0892621 C2.5670223,12.2455448 2.77898493,12.3333438 3,12.3333437 L9,12.3333437 C9.22101507,12.3333438 9.4329777,12.2455448 9.58925749,12.0892621 C9.74553728,11.9329794 9.83333227,11.7210151 9.83332812,11.5 L9.83332812,4.16667187 C9.83332812,3.8905295 10.0571858,3.66667187 10.3333281,3.66667187 C10.6094705,3.66667187 10.8333281,3.8905295 10.8333281,4.16667187 L10.8333281,11.5 C10.8333281,12.5125 10.0125,13.3333438 9,13.3333438 L3,13.3333438 C1.9875,13.3333438 1.16667188,12.5125 1.16667188,11.5 L1.16667188,2.66667187 Z M4.66667187,1 C4.3905295,1 4.16667187,0.776142375 4.16667187,0.5 C4.16667187,0.223857625 4.3905295,0 4.66667187,0 L7.33332813,0 C7.6094705,0 7.83332813,0.223857625 7.83332813,0.5 C7.83332813,0.776142375 7.6094705,1 7.33332813,1 L4.66667187,1 L4.66667187,1 Z M4.16667187,5.5 C4.16667187,5.22385763 4.3905295,5 4.66667187,5 C4.94281425,5 5.16667187,5.22385763 5.16667187,5.5 L5.16667187,9.5 C5.16667187,9.77614237 4.94281425,10 4.66667187,10 C4.3905295,10 4.16667187,9.77614237 4.16667187,9.5 L4.16667187,5.5 Z M6.83332813,5.5 C6.83332813,5.22385763 7.05718575,5 7.33332813,5 C7.6094705,5 7.83332813,5.22385763 7.83332813,5.5 L7.83332813,9.5 C7.83332813,9.77614237 7.6094705,10 7.33332813,10 C7.05718575,10 6.83332813,9.77614237 6.83332813,9.5 L6.83332813,5.5 Z" id="形状"></path>
                </g>
            </g>
        </g>
    </g>
</svg>