<?xml version="1.0" encoding="UTF-8"?>
<svg width="12px" height="12px" viewBox="0 0 12 12" version="1.1" xmlns="http://www.w3.org/2000/svg" xmlns:xlink="http://www.w3.org/1999/xlink">
    <g id="页面-1" stroke="none" stroke-width="1" fill="none" fill-rule="evenodd">
        <g id="控制中心_员工列表" transform="translate(-246.000000, -22.000000)" fill="#333333">
            <g id="编组-4" transform="translate(168.000000, 18.000000)">
                <g id="icon左侧导航栏/工作台nor" transform="translate(22.000000, 0.000000)">
                    <g id="icon_jiantou-" transform="translate(56.000000, 4.000000)">
                        <path d="M10.8581677,3.13271692 C11.0505556,3.30594378 11.0660887,3.60233311 10.8928619,3.79472103 L6.42482075,8.75970835 C6.39967731,8.80778806 6.36569754,8.85228587 6.32301148,8.89072058 C6.23697132,8.96819148 6.13013009,9.00790893 6.0228071,9.01093782 C6.01457438,9.01040135 6.00621015,9.01081415 5.99783963,9.01100408 C5.98977345,9.01078093 5.98174275,9.01037607 5.97372674,9.00976619 C5.86651933,9.00790893 5.7596781,8.96819148 5.67363794,8.89072058 C5.63095188,8.85228587 5.59697211,8.80778806 5.57182867,8.75970835 L1.10378753,3.79472103 C0.930560672,3.60233311 0.946093779,3.30594378 1.13848169,3.13271692 C1.33086961,2.95949006 1.62725895,2.97502317 1.8004858,3.16741109 L5.99838267,7.82931206 L10.1961636,3.16741109 C10.3693905,2.97502317 10.6657798,2.95949006 10.8581677,3.13271692 Z" id="Combined-Shape"></path>
                    </g>
                </g>
            </g>
        </g>
    </g>
</svg>