<?xml version="1.0" encoding="UTF-8"?>
<svg width="24px" height="24px" viewBox="0 0 24 24" version="1.1" xmlns="http://www.w3.org/2000/svg" xmlns:xlink="http://www.w3.org/1999/xlink">
    <title>返回备份</title>
    <defs>
        <linearGradient x1="13.0685087%" y1="86.939755%" x2="86.8211375%" y2="6.40332865%" id="linearGradient-1">
            <stop stop-color="#7589B0" offset="0%"></stop>
            <stop stop-color="#A9B5D2" offset="100%"></stop>
        </linearGradient>
    </defs>
    <g id="20220402确定版本" stroke="none" stroke-width="1" fill="none" fill-rule="evenodd">
        <g id="45新建试卷_编辑内容示例图" transform="translate(-80.000000, -123.000000)" fill-rule="nonzero">
            <g id="header" transform="translate(60.000000, 103.000000)">
                <g id="返回备份" transform="translate(20.000000, 20.000000)">
                    <rect id="矩形" fill="#000000" opacity="0" x="0" y="0" width="24" height="24"></rect>
                    <path d="M11.9742188,1.42265625 C6.21796875,1.42265625 1.5046875,6.10546875 1.5046875,11.8921875 C1.5046875,17.6484375 6.18515625,22.359375 11.971875,22.359375 C17.7585938,22.359375 22.4390634,17.6789063 22.4390634,11.8921875 C22.4414063,6.1359375 17.7609375,1.42265625 11.9742188,1.42265625 Z M17.8242188,16.265625 C17.821875,16.4132813 17.7,16.5328125 17.55,16.5328125 C17.41875,16.5328125 17.3085938,16.4414063 17.2828125,16.3148438 C17.278125,16.2984375 17.1,15.4898438 16.3359375,14.6953125 C15.3632813,13.6828125 13.85625,13.1273438 11.9671875,13.078125 L11.9671875,15.2765625 C11.9671875,15.3796875 11.9085938,15.4710938 11.8171875,15.5179688 C11.7257813,15.5648438 11.615625,15.5554688 11.53125,15.496875 L6.2859375,11.7351563 C6.2625,11.71875 6.24140625,11.6976563 6.225,11.6742188 C6.13828125,11.5523438 6.16640625,11.3859375 6.2859375,11.2992188 L11.53125,7.5234375 C11.615625,7.4625 11.7257813,7.45546875 11.8171875,7.5 C11.9085938,7.546875 11.9648438,7.63828125 11.9671875,7.74140625 L11.9671875,10.0757813 C12.5109375,10.096875 13.0523438,10.1789063 13.5773438,10.3171875 C14.6648438,10.603125 15.5695313,11.1 16.2632813,11.7984375 C17.3320313,12.8671875 17.8570313,14.371875 17.8242188,16.265625 Z" id="形状" fill="url(#linearGradient-1)"></path>
                </g>
            </g>
        </g>
    </g>
</svg>