<?xml version="1.0" standalone="no"?><!DOCTYPE svg PUBLIC "-//W3C//DTD SVG 1.1//EN" "http://www.w3.org/Graphics/SVG/1.1/DTD/svg11.dtd"><svg t="1704253340182" class="icon" viewBox="0 0 1424 1024" version="1.1" xmlns="http://www.w3.org/2000/svg" p-id="15365" xmlns:xlink="http://www.w3.org/1999/xlink" width="278.125" height="200"><path d="M981.333333 346.666667H640c-23.466667 0-42.666667-14.293333-42.666667-32s19.2-32 42.666667-32h341.333333c23.466667 0 42.666667 14.293333 42.666667 32s-18.986667 32-42.666667 32z m4.48-189.653334H720.853333c-21.333333 0-38.186667-12.8-38.186666-28.586666V121.6c0-15.786667 17.066667-28.586667 38.186666-28.586667h264.96c21.333333 0 38.186667 12.8 38.186667 28.586667v7.893333c0 15.786667-17.066667 28.586667-38.186667 28.586667zM981.333333 536.32H512c-23.466667 0-42.666667-14.293333-42.666667-32s19.2-32 42.666667-32h469.333333c23.466667 0 42.666667 14.293333 42.666667 32s-18.986667 32-42.666667 32z m1.706667 199.893333H104.96c-22.613333 0-40.96-13.44-40.96-30.72v-4.053333c0-16.426667 18.346667-29.866667 40.96-29.866667h878.08c22.613333 0 40.96 13.44 40.96 29.866667v4.053333c0 16.64-18.346667 30.08-40.96 30.08z" fill="#0077F0" opacity=".5" p-id="15366"></path><path d="M224 484.693333V48.853333c0-21.333333 12.8-38.186667 28.586667-38.186666h6.826666c15.786667 0 28.586667 17.28 28.586667 38.186666v435.84c0 21.333333-12.8 37.973333-28.586667 37.973334h-6.826666c-15.786667 0-28.586667-17.066667-28.586667-37.973334zM469.333333 64H42.666667C19.2 64 0 49.706667 0 32S19.2 0 42.666667 0h426.666666c23.466667 0 42.666667 14.506667 42.666667 32S493.013333 64 469.333333 64z" fill="#0077F0" p-id="15367"></path></svg>