<?xml version="1.0" encoding="UTF-8"?>
<svg width="21px" height="21px" viewBox="0 0 21 21" version="1.1" xmlns="http://www.w3.org/2000/svg" xmlns:xlink="http://www.w3.org/1999/xlink">
    <title>多选-已选</title>
    <defs>
        <linearGradient x1="50%" y1="0%" x2="50%" y2="99.4673295%" id="linearGradient-1">
            <stop stop-color="#68ADFF" offset="0%"></stop>
            <stop stop-color="#4188FF" offset="100%"></stop>
        </linearGradient>
        <path d="M16.18567,17.9594284 L3.75836914,17.9594284 C2.77705605,17.9594284 1.98361146,17.1639852 1.98361146,16.1846707 L1.98361146,3.75736984 C1.98361146,2.77605676 2.77905465,1.98261217 3.75836914,1.98261217 L16.1836714,1.98261217 C17.1649845,1.98261217 17.9584329,2.77805535 17.9584329,3.75736984 L17.9584329,16.1826721 C17.9604277,17.1639852 17.1649845,17.9594284 16.18567,17.9594284 L16.18567,17.9594284 Z" id="path-2"></path>
        <filter x="-6.3%" y="-6.3%" width="125.0%" height="125.0%" filterUnits="objectBoundingBox" id="filter-3">
            <feOffset dx="1" dy="1" in="SourceAlpha" result="shadowOffsetOuter1"></feOffset>
            <feGaussianBlur stdDeviation="0.5" in="shadowOffsetOuter1" result="shadowBlurOuter1"></feGaussianBlur>
            <feColorMatrix values="0 0 0 0 0.278431373   0 0 0 0 0.556862745   0 0 0 0 1  0 0 0 0.2 0" type="matrix" in="shadowBlurOuter1"></feColorMatrix>
        </filter>
        <linearGradient x1="50%" y1="0%" x2="50%" y2="97.5579108%" id="linearGradient-4">
            <stop stop-color="#FFFFFF" offset="0%"></stop>
            <stop stop-color="#CFE5FF" offset="100%"></stop>
        </linearGradient>
        <path d="M14.9525332,7.3668432 L14.3309683,6.7572699 C13.9872089,6.42150494 13.4295993,6.42150494 13.0858399,6.7572699 L8.72689117,11.024283 L6.85819926,9.19556311 C6.51443988,8.85979814 5.95683021,8.85979814 5.61307084,9.19556311 L4.98950734,9.80513641 C4.64574797,10.1409014 4.64574797,10.688518 4.98950734,11.024283 L7.47976416,13.4625762 C7.47976416,13.4625762 7.47976416,13.4625762 7.47976416,13.4625762 L8.10332766,14.0721495 C8.44708703,14.4079145 9.0046967,14.4079145 9.34845607,14.0721495 L14.9525332,8.58598982 C15.2982912,8.25022484 15.2982912,7.70260818 14.9525332,7.3668432 L14.9525332,7.3668432 Z" id="path-5"></path>
        <filter x="-57.3%" y="-64.0%" width="233.6%" height="279.1%" filterUnits="objectBoundingBox" id="filter-6">
            <feOffset dx="1" dy="2" in="SourceAlpha" result="shadowOffsetOuter1"></feOffset>
            <feGaussianBlur stdDeviation="2" in="shadowOffsetOuter1" result="shadowBlurOuter1"></feGaussianBlur>
            <feColorMatrix values="0 0 0 0 0.254901961   0 0 0 0 0.533333333   0 0 0 0 0.996078431  0 0 0 0.6 0" type="matrix" in="shadowBlurOuter1"></feColorMatrix>
        </filter>
    </defs>
    <g id="20220402确定版本" stroke="none" stroke-width="1" fill="none" fill-rule="evenodd">
        <g id="42试卷详情" transform="translate(-1050.000000, -867.000000)" fill-rule="nonzero">
            <g id="编组-9" transform="translate(240.000000, 303.000000)">
                <g id="main" transform="translate(188.000000, 88.000000)">
                    <g id="编组-8备份" transform="translate(0.000000, 461.000000)">
                        <g id="编组-7" transform="translate(607.000000, 8.000000)">
                            <g id="多选-已选" transform="translate(15.000000, 7.000000)">
                                <rect id="矩形" fill="#000000" opacity="0" x="0" y="0" width="20" height="20"></rect>
                                <g id="形状">
                                    <use fill="black" fill-opacity="1" filter="url(#filter-3)" xlink:href="#path-2"></use>
                                    <use fill="url(#linearGradient-1)" xlink:href="#path-2"></use>
                                </g>
                                <g id="路径">
                                    <use fill="black" fill-opacity="1" filter="url(#filter-6)" xlink:href="#path-5"></use>
                                    <use fill="url(#linearGradient-4)" xlink:href="#path-5"></use>
                                </g>
                            </g>
                        </g>
                    </g>
                </g>
            </g>
        </g>
    </g>
</svg>