<?xml version="1.0" standalone="no"?><!DOCTYPE svg PUBLIC "-//W3C//DTD SVG 1.1//EN" "http://www.w3.org/Graphics/SVG/1.1/DTD/svg11.dtd"><svg t="1704251402290" class="icon" viewBox="0 0 1024 1024" version="1.1" xmlns="http://www.w3.org/2000/svg" p-id="7783" xmlns:xlink="http://www.w3.org/1999/xlink" width="200" height="200"><path d="M102.4 153.6m51.2 0l716.8 0q51.2 0 51.2 51.2l0 76.8q0 51.2-51.2 51.2l-716.8 0q-51.2 0-51.2-51.2l0-76.8q0-51.2 51.2-51.2Z" fill="#1890FF" p-id="7784"></path><path d="M102.4 571.7504m51.2 0l716.8 0q51.2 0 51.2 51.2l0 76.8q0 51.2-51.2 51.2l-716.8 0q-51.2 0-51.2-51.2l0-76.8q0-51.2 51.2-51.2Z" fill="#1890FF" p-id="7785"></path><path d="M102.4 392.5504m29.8496 0l759.5008 0q29.8496 0 29.8496 29.8496l0 0.0512q0 29.8496-29.8496 29.8496l-759.5008 0q-29.8496 0-29.8496-29.8496l0-0.0512q0-29.8496 29.8496-29.8496Z" fill="#1890FF" opacity=".4" p-id="7786"></path><path d="M102.4 810.6496m29.8496 0l759.5008 0q29.8496 0 29.8496 29.8496l0 0.0512q0 29.8496-29.8496 29.8496l-759.5008 0q-29.8496 0-29.8496-29.8496l0-0.0512q0-29.8496 29.8496-29.8496Z" fill="#1890FF" opacity=".4" p-id="7787"></path></svg>