<svg class="icon" viewBox="0 0 1024 1024" xmlns="http://www.w3.org/2000/svg" width="200" height="200"><defs><style>@font-face{font-family:element-icons;src:url(chrome-extension://moombeodfomdpjnpocobemoiaemednkg/fonts/element-icons.woff) format(&quot;woff&quot;),url(&quot;chrome-extension://moombeodfomdpjnpocobemoiaemednkg/fonts/element-icons.ttf &quot;) format(&quot;truetype&quot;)}@font-face{font-family:feedback-iconfont;src:url(//at.alicdn.com/t/font_1031158_u69w8yhxdu.woff2?t=1630033759944) format(&quot;woff2&quot;),url(//at.alicdn.com/t/font_1031158_u69w8yhxdu.woff?t=1630033759944) format(&quot;woff&quot;),url(//at.alicdn.com/t/font_1031158_u69w8yhxdu.ttf?t=1630033759944) format(&quot;truetype&quot;)}</style></defs><path d="M384 320a64 64 0 1 1 0-128 64 64 0 0 1 0 128zm0 256a64 64 0 1 1 0-128 64 64 0 0 1 0 128zm0 256a64 64 0 1 1 0-128 64 64 0 0 1 0 128zm256-512a64 64 0 1 1 0-128 64 64 0 0 1 0 128zm0 256a64 64 0 1 1 0-128 64 64 0 0 1 0 128zm0 256a64 64 0 1 1 0-128 64 64 0 0 1 0 128z"/></svg>