<?xml version="1.0" encoding="UTF-8"?>
<svg width="48px" height="48px" viewBox="0 0 48 48" version="1.1" xmlns="http://www.w3.org/2000/svg" xmlns:xlink="http://www.w3.org/1999/xlink">
    <g id="--项目信息" stroke="none" stroke-width="1" fill="none" fill-rule="evenodd">
        <g id="画板" transform="translate(-438.000000, -209.000000)">
            <g id="编组-12" transform="translate(407.000000, 122.000000)">
                <g id="指南针" transform="translate(31.000000, 87.000000)">
                    <circle id="椭圆形" fill="#282828" opacity="0.699999988" cx="24" cy="24" r="24"></circle>
                    <g id="编组" transform="translate(17.000000, 6.000000)" fill="#FFFFFF" fill-rule="nonzero">
                        <path d="M0,29 C0,32.8659933 3.13400675,36 7,36 C10.8659932,36 14,32.8659933 14,29 C14,26.4991409 12.6658076,24.1882518 10.5,22.9378222 C8.33419248,21.6873926 5.66580752,21.6873926 3.5,22.9378222 C1.33419242,24.1882518 0,26.4991409 0,29 L0,29 Z" id="路径"></path>
                        <path d="M7,20.8346457 C9.26027397,20.8346457 11.2328767,21.7007874 12.8356164,23 L13,23 L7,13 L1,23 L1.16438356,23 C2.76712329,21.7007874 4.73972603,20.8346457 7,20.8346457 L7,20.8346457 Z" id="路径"></path>
                        <path d="M6.2985782,0 L6.2985782,8 L5.3507109,8 L5.3507109,6.64788732 C4.66824645,6.94835681 3.9478673,7.21126761 3.18957346,7.39906103 L3,6.49765258 C3.79620853,6.34741784 4.59241706,6.08450704 5.38862559,5.74647887 L5.38862559,3.19248826 L3.18957346,3.19248826 L3.18957346,2.3286385 L5.38862559,2.3286385 L5.38862559,0 L6.2985782,0 Z M8.49763033,7.92488263 C7.81516588,7.92488263 7.51184834,7.58685446 7.51184834,6.91079812 L7.51184834,0 L8.42180095,0 L8.42180095,2.77934272 C9.14218009,2.51643192 9.78672986,2.17840376 10.4312796,1.72769953 L10.9620853,2.47887324 C10.0521327,3.00469484 9.21800948,3.38028169 8.42180095,3.64319249 L8.42180095,6.76056338 C8.42180095,6.98591549 8.49763033,7.06103286 8.68720379,7.06103286 L9.67298578,7.06103286 C9.82464455,7.06103286 9.93838863,6.98591549 10.014218,6.87323944 C10.0900474,6.72300469 10.1279621,6.27230047 10.1279621,5.44600939 L11,5.74647887 C10.9620853,6.76056338 10.8483412,7.39906103 10.6966825,7.58685446 C10.5450237,7.81220657 10.2417062,7.88732394 9.82464455,7.88732394 L8.49763033,7.88732394 L8.49763033,7.92488263 Z" id="形状"></path>
                    </g>
                </g>
            </g>
        </g>
    </g>
</svg>