<?xml version="1.0" encoding="UTF-8"?>
<svg width="20px" height="20px" viewBox="0 0 20 20" version="1.1" xmlns="http://www.w3.org/2000/svg" xmlns:xlink="http://www.w3.org/1999/xlink">
    <title>旋转角度</title>
    <defs>
        <filter id="filter-1">
            <feColorMatrix in="SourceGraphic" type="matrix" values="0 0 0 0 1.000000 0 0 0 0 1.000000 0 0 0 0 1.000000 0 0 0 1.000000 0"></feColorMatrix>
        </filter>
    </defs>
    <g id="--项目信息" stroke="none" stroke-width="1" fill="none" fill-rule="evenodd">
        <g id="画板" transform="translate(-762.000000, -483.000000)">
            <g id="编组-12" transform="translate(407.000000, 122.000000)">
                <g id="编组-7" transform="translate(347.000000, 355.000000)" filter="url(#filter-1)">
                    <g transform="translate(8.000000, 5.000000)">
                        <g id="编组" transform="translate(0.000000, 1.000000)" fill="#5D6EA4" fill-rule="nonzero">
                            <path d="M17.533184,6.15079949 C16.8609167,4.8404959 15.8604054,3.72697569 14.6293555,2.9189802 C13.2537299,2.01567661 11.6434417,1.53576224 9.9978681,1.53865755 C5.32552966,1.53865755 1.53829723,5.32720271 1.53829723,10.0002099 C1.53829723,14.6736428 5.32552966,18.4613367 9.9978681,18.4613367 C12.8170158,18.4613367 15.3144616,17.0814397 16.8514822,14.9605184 C16.9727403,14.6939551 17.2386918,14.5229937 17.5314819,14.5233949 C17.9438222,14.5233949 18.3944603,14.9694566 18.3944603,15.3827447 C18.3944603,15.5806633 18.3178646,15.7598541 18.1923327,15.8935024 C16.3114578,18.475978 13.3087934,20.0024223 10.1144638,20 C4.59318954,20 0,15.5227775 0,9.9997843 C0,4.47721679 4.59233848,0 10.1148893,0 C12.1361651,0 14.0170153,0.600140286 15.5897806,1.63101957 C16.7314934,2.38016114 17.7086657,3.35408657 18.4616943,4.49339077 L18.4616943,2.30351719 C18.4715208,1.88567748 18.8129855,1.55207236 19.2308429,1.55207236 C19.6487003,1.55207236 19.9901651,1.88567748 20,2.30351719 L20,6.92034107 C20.0006727,7.12464431 19.919834,7.32077637 19.7754029,7.46524139 C19.6309717,7.6097064 19.4348855,7.69056404 19.2306301,7.68988264 L14.6153129,7.68988264 C14.1975711,7.68005389 13.8640441,7.33850918 13.8640441,6.92055388 C13.8640441,6.50259858 14.1975711,6.16105387 14.6153129,6.15122512 L17.533184,6.15122512 L17.533184,6.15079949 Z M10.3927616,8.0576282 C11.4550279,8.0576282 12.316165,8.91896696 12.316165,9.98148216 C12.316165,11.0439974 11.4550279,11.9053361 10.3927616,11.9053361 C9.33049519,11.9053361 8.46935817,11.0439973 8.46935817,9.98148216 C8.46935817,8.91896698 9.33049519,8.0576282 10.3927616,8.0576282 Z" id="旋转角度"></path>
                        </g>
                    </g>
                </g>
            </g>
        </g>
    </g>
</svg>