<?xml version="1.0" encoding="UTF-8"?>
<svg width="133px" height="18px" viewBox="0 0 133 18" version="1.1" xmlns="http://www.w3.org/2000/svg" xmlns:xlink="http://www.w3.org/1999/xlink">
    <title>logo</title>
    <defs>
        <polygon id="path-1" points="0 0 8.0165615 0 8.0165615 15.6962153 0 15.6962153"></polygon>
        <polygon id="path-3" points="0 0 4.87618089 0 4.87618089 4.87903548 0 4.87903548"></polygon>
        <polygon id="path-5" points="0 0 16.0455097 0 16.0455097 16.0518593 0 16.0518593"></polygon>
    </defs>
    <g id="页面-2" stroke="none" stroke-width="1" fill="none" fill-rule="evenodd">
        <g id="1客户管理-客户列表" transform="translate(-16.000000, -19.000000)">
            <g id="logo" transform="translate(16.000000, 19.000000)">
                <g id="编组" transform="translate(0.000000, 2.041894)">
                    <mask id="mask-2" fill="white">
                        <use xlink:href="#path-1"></use>
                    </mask>
                    <g id="Clip-2"></g>
                    <path d="M5.6752815,2.4730794 L5.6752815,13.1943464 C5.6752815,14.0120304 6.33778398,14.6748144 7.1551206,14.6748144 L8.0165615,14.6748144 L8.0165615,15.6962153 L-9.38388779e-05,15.6962153 L-9.38388779e-05,14.6748144 L0.711204856,14.6748144 C1.52854148,14.6748144 2.19104396,14.0120304 2.19104396,13.1943464 L2.19104396,2.4730794 C2.19104396,1.65539542 1.52854148,0.992611394 0.711204856,0.992611394 L-9.38388779e-05,0.992611394 L-9.38388779e-05,0 L8.0165615,0 L8.0165615,0.992611394 L7.1551206,0.992611394 C6.33778398,0.992611394 5.6752815,1.65539542 5.6752815,2.4730794" id="Fill-1" fill="#005DBE" mask="url(#mask-2)"></path>
                </g>
                <path d="M31.537245,16.7167713 L31.537245,17.7381721 L23.5806465,17.7381721 L23.5806465,16.7167713 L24.6447794,16.7167713 C25.3958032,16.7167713 26.0057559,16.1074981 26.0057559,15.3561551 C26.0057559,15.3408216 26.0057559,15.325801 26.0048175,15.3104675 L26.0038791,15.3026443 L26.0038791,15.2970115 C26.0032536,15.2769841 26.0023152,15.2569566 26.0001256,15.2369291 L25.9985616,15.2169017 L25.4786942,7.80486083 L25.4714999,7.6994037 L25.2847605,5.03324699 L23.4727318,9.10351698 L23.0929972,9.95624902 L21.1539731,14.3100329 L20.0829587,16.7167713 L19.6278402,17.7381721 L19.0285226,17.7381721 L18.5590154,16.7255333 L18.5630817,16.7167713 L18.554949,16.7167713 L18.289385,16.1441108 L17.6881906,14.8488969 L13.2192704,5.20880026 L12.6077537,15.2857461 C12.6068153,15.3089028 12.6061897,15.3329984 12.6061897,15.3561551 C12.6061897,16.1074981 13.2152041,16.7167713 13.9662279,16.7167713 L14.7388346,16.7167713 L14.7388346,17.7381721 L9.13540245,17.7381721 L9.13540245,16.7167713 L9.72690017,16.7167713 C10.510142,16.7167713 11.1516871,16.1074981 11.2029857,15.3361277 L11.2051753,15.2976374 L11.8733081,4.29223066 L11.8733081,4.2872238 C11.8742465,4.26750926 11.8748721,4.24748179 11.8748721,4.22745432 C11.8748721,3.56873837 11.3409289,3.03456824 10.6824927,3.03456824 L10.1469855,3.03456824 L10.1469855,2.04195685 L15.4660859,2.04195685 L15.926522,3.03456824 L20.114864,12.0669564 L20.3791768,12.6377393 L21.0335466,11.1685367 L24.6551017,3.03456824 L25.0780022,2.08420229 L25.0970828,2.04195685 L30.5250363,2.04195685 L30.5250363,3.03456824 L29.8450172,3.03456824 C29.1865811,3.03456824 28.6523251,3.56873837 28.6523251,4.22745432 C28.6523251,4.24842058 28.6532635,4.26813512 28.6542019,4.28878844 L28.7349033,5.48668139 L28.7593014,5.84999218 L29.410856,15.4647416 C29.4458892,16.1625737 30.0229983,16.7167713 30.7292922,16.7167713 L31.537245,16.7167713 Z" id="Fill-3" fill="#005DBE"></path>
                <path d="M74.5510786,16.7167713 L74.5510786,17.7381721 L65.952935,17.7381721 L65.952935,16.7167713 L67.0686792,16.7167713 C67.4255798,16.7167713 67.7152291,16.4276247 67.7152291,16.0708854 C67.7152291,15.9366388 67.6745656,15.812093 67.6051248,15.7091393 C67.5985561,15.7000643 67.5932386,15.6913023 67.5866698,15.6834791 C67.2651153,15.2363033 66.9313617,14.7985153 66.5866602,14.3707411 C65.6679776,13.2294884 64.6701575,12.1561412 63.6019583,11.1557066 C63.5819393,11.1366179 63.5612948,11.1172163 63.5406502,11.0981276 C63.5375223,11.0949983 63.5340815,11.0918691 63.5309535,11.0893656 C63.5272,11.0862363 63.5237592,11.0821683 63.5200057,11.0781002 C63.49029,11.0502495 63.4599488,11.0223988 63.4305459,10.9945481 C63.428982,10.9957998 63.4271052,10.9976774 63.4255412,10.9983032 C63.0401762,10.6844352 62.5634747,10.4785278 62.0407922,10.4281462 L62.0407922,15.2363033 C62.0407922,15.3608491 62.0561192,15.4822656 62.0845836,15.5971106 L62.085522,15.5971106 C62.2459865,16.240806 62.8277875,16.7167713 63.5206313,16.7167713 L64.3898921,16.7167713 L64.3898921,17.7381721 L56.3748007,17.7381721 L56.3748007,16.7167713 L57.0870378,16.7167713 C57.9043744,16.7167713 58.5668769,16.0539872 58.5668769,15.2363033 L58.5668769,4.51503625 C58.5668769,4.26250239 58.5040049,4.02530206 58.3929622,3.81783001 C58.1439764,3.35156552 57.6522606,3.03456824 57.0870378,3.03456824 L56.3748007,3.03456824 L56.3748007,2.04195685 L64.3898921,2.04195685 L64.3898921,3.03456824 L63.5206313,3.03456824 C62.7032946,3.03456824 62.0407922,3.69735227 62.0407922,4.51503625 L62.0407922,9.58261157 C62.9219392,9.37826881 63.7345839,8.99649519 64.4408779,8.47734567 L64.4418163,8.47734567 C64.6316836,8.33746632 64.8146694,8.18757323 64.9885841,8.02860521 L64.9895225,8.02860521 C64.9901481,8.02860521 64.9901481,8.02923106 64.9910865,8.03016985 C65.0636552,7.96132543 65.1352856,7.89122929 65.2066031,7.82019436 C65.2566505,7.76981276 65.3070107,7.71786652 65.3558069,7.66592027 C66.2754279,6.72118704 67.056793,5.64314598 67.6642433,4.45996071 C67.6714376,4.44556597 67.6792575,4.43023244 67.6864519,4.41583769 C67.7471343,4.28878844 67.7815419,4.14765738 67.7815419,3.99745137 C67.7815419,3.57750039 67.5125371,3.22044818 67.13812,3.08870499 C67.038338,3.05365693 66.9307361,3.03456824 66.818755,3.03456824 L66.0276933,3.03456824 L66.0276933,2.04195685 L72.7662631,2.04195685 L72.7662631,3.03456824 L72.1691351,3.03456824 C71.0117889,3.03456824 69.9980162,3.65009996 69.4377981,4.57230229 C68.461561,6.14946541 67.2938925,7.59582413 65.9679492,8.87820796 C65.9488686,8.89729664 65.9297881,8.91575946 65.9097691,8.93390935 C66.1046412,9.04844144 66.2873142,9.18018463 66.454973,9.32851306 C66.4571626,9.3310165 66.4596649,9.333207 66.4621673,9.33571044 C66.4637313,9.33664922 66.4643569,9.33727508 66.4659208,9.33883973 C66.4693616,9.34134316 66.4724896,9.34447245 66.4756175,9.34760175 C66.4771815,9.34854053 66.4781199,9.34947932 66.4796839,9.35104397 C66.4837502,9.35417326 66.4875038,9.35730255 66.4915701,9.36137063 C66.5203474,9.38859547 66.5481863,9.41488152 66.5763379,9.44210636 C66.5897882,9.45462353 66.6032384,9.46745363 66.6170014,9.48122251 C68.3426984,11.1331757 69.8791536,12.9819614 71.18977,14.9919056 C71.8629075,16.0298917 73.0312015,16.7167713 74.3602729,16.7167713 L74.5510786,16.7167713 Z" id="Fill-5" fill="#005DBE"></path>
                <path d="M47.4358969,13.7749239 L47.3489395,14.9383947 L47.2435272,16.3550251 L47.2166267,16.7167713 L47.1406172,17.7381721 L32.7685675,17.7381721 L32.7685675,16.7167713 L33.4792406,16.7167713 C33.8495913,16.7167713 34.1889753,16.5800212 34.4482834,16.3550251 C34.7610796,16.0834026 34.9590797,15.6834791 34.9590797,15.2363033 L34.9590797,4.51503625 C34.9590797,4.20742685 34.8658664,3.9217225 34.7054019,3.68514803 C34.6431554,3.59408564 34.5712123,3.50959476 34.4905109,3.43449175 C34.2512217,3.21106031 33.9381127,3.06492238 33.5918472,3.03926218 C33.5959136,3.03769754 33.5990415,3.03613289 33.6031079,3.03456824 L32.7685675,3.03456824 L32.7685675,2.04195685 L46.3999157,2.04195685 L46.4693564,3.01860886 L46.469982,3.03456824 L46.4987593,3.43449175 L46.6592238,5.70072495 L45.6983137,5.70072495 L45.5331572,4.69872568 L45.5281525,4.6699362 C45.4117923,3.96866188 44.802778,3.43449175 44.0692707,3.43449175 L38.4329949,3.43449175 L38.4329949,9.11071435 L42.9341331,9.11071435 C43.7514697,9.11071435 44.4139722,8.44793032 44.4139722,7.62993342 L44.4139722,7.29228282 L45.4268065,7.29228282 L45.4268065,12.3110412 L44.4139722,12.3110412 L44.4139722,11.9455399 L44.4130338,11.9446011 C44.3986452,11.1397472 43.7427114,10.4913579 42.9341331,10.4913579 L38.4329949,10.4913579 L38.4329949,15.5276403 C38.4329949,15.984517 38.8024073,16.3550251 39.2597154,16.3550251 L44.0692707,16.3550251 C45.0677164,16.3550251 45.9128919,15.6938057 46.1900294,14.7850594 L46.2009772,14.7475079 L46.202854,14.7428139 L46.4878114,13.7749239 L47.4358969,13.7749239 Z" id="Fill-7" fill="#005DBE"></path>
                <g id="编组" transform="translate(49.339669, 0.000000)">
                    <mask id="mask-4" fill="white">
                        <use xlink:href="#path-3"></use>
                    </mask>
                    <g id="Clip-10"></g>
                    <path d="M2.726645,4.43029502 L2.14703353,4.43029502 L2.14703353,2.72796022 L0.446985855,2.72796022 L0.446985855,2.15029294 L2.14703353,2.15029294 L2.14703353,0.447958137 L2.726645,0.447958137 L2.726645,2.15029294 L4.43013343,2.15029294 L4.43013343,2.72796022 L2.726645,2.72796022 L2.726645,4.43029502 Z M4.86429464,2.1959806 C4.8586643,2.14403435 4.85240838,2.09208811 4.84333729,2.04170651 C4.8251951,1.92435806 4.79735624,1.81013891 4.76201026,1.69936197 L4.76201026,1.69842318 C4.64252209,1.3222823 4.43388698,0.986196346 4.16175424,0.713947949 C4.02381109,0.575633247 3.86960253,0.454216721 3.70194373,0.352827663 C3.66847453,0.333113124 3.63500534,0.313085656 3.60059775,0.294622833 C3.60059775,0.293684046 3.59997215,0.294622833 3.59997215,0.294622833 C3.56556457,0.275534153 3.53053138,0.258010118 3.4954982,0.240173154 C3.42418066,0.206063872 3.35098633,0.174770953 3.27591523,0.147546114 C3.25746025,0.14128753 3.23837968,0.134090158 3.21898631,0.127831575 C2.97406684,0.0445924097 2.71163078,-0.000156464596 2.43855964,-0.000156464596 C2.16486291,-0.000156464596 1.90148846,0.0455311973 1.6556306,0.127831575 C1.54302395,0.166947723 1.43354526,0.213261244 1.32813292,0.266772135 L1.32750733,0.266772135 C1.29309974,0.284922028 1.25869215,0.303384851 1.22428456,0.323412319 L1.22365897,0.323412319 C0.865194455,0.530258514 0.563346064,0.825663671 0.349706218,1.17958659 C0.193308089,1.43900489 0.0828910088,1.73034196 0.032530811,2.04170651 C0.0112606654,2.17125919 0,2.30362824 0,2.43943951 C0,2.64472106 0.0256492933,2.84436988 0.0725687323,3.0343179 L0.0735071211,3.0343179 C0.123554523,3.23740895 0.200189606,3.4298604 0.297782039,3.60854297 L0.298407632,3.60854297 C0.513298662,4.00314668 0.834853217,4.3314094 1.22365897,4.55577963 L1.22428456,4.55577963 C1.25869215,4.57549417 1.29309974,4.59395699 1.32750733,4.61241981 C1.32813292,4.61148102 1.32813292,4.61241981 1.32813292,4.61241981 C1.43354526,4.6659307 1.54302395,4.71224422 1.6556306,4.75042159 C1.90148846,4.83366075 2.16486291,4.87903548 2.43855964,4.87903548 C2.69067343,4.87903548 2.93340332,4.84085812 3.16237019,4.7698232 C3.20084413,4.75761896 3.23837968,4.74478886 3.27591523,4.7313329 C3.35098633,4.70410806 3.42418066,4.67312807 3.4954982,4.63870586 C3.52396266,4.62431112 3.55273992,4.60991638 3.58057879,4.59489578 C3.58714751,4.59176649 3.59340343,4.58769841 3.59997215,4.58456911 L3.60059775,4.58456911 C3.63500534,4.5651675 3.66847453,4.54607882 3.70194373,4.52605136 C3.86960253,4.4246623 4.02381109,4.30324577 4.16175424,4.16430521 C4.34223768,3.984058 4.49550785,3.77470837 4.61280644,3.54407955 L4.61280644,3.54314077 C4.69444627,3.38323395 4.7582567,3.21237461 4.80267377,3.0343179 L4.80361216,3.0343179 C4.8505316,2.84436988 4.87618089,2.64472106 4.87618089,2.43943951 C4.87618089,2.35713913 4.87211454,2.27577754 4.86429464,2.1959806 L4.86429464,2.1959806 Z" id="Fill-9" fill="#FAC300" mask="url(#mask-4)"></path>
                </g>
                <path d="M48.677917,8.32563759 L50.3645144,7.76173919 L52.9891878,6.88428574 L53.4455576,6.88428574 L53.4455576,15.5915405 C53.4455576,16.0643765 53.6914154,16.4802594 54.0627046,16.7168339 C54.2694629,16.8495158 54.5153208,16.9258706 54.7796336,16.9258706 L54.9838896,16.9258706 L54.9838896,17.7382347 L48.677917,17.7382347 L48.677917,16.9258706 L49.115519,16.9258706 C49.3716991,16.9258706 49.6094242,16.8495158 49.8074243,16.7168339 C50.1433675,16.4924636 50.3645144,16.1097512 50.3645144,15.6763443 L50.3645144,10.0799186 C50.3645144,9.76448601 50.1668272,9.49474105 49.8887513,9.38834513 L49.8743627,9.38302533 L48.677917,8.93021679 L48.677917,8.32563759 Z" id="Fill-11" fill="#005DBE"></path>
                <g id="编组" transform="translate(79.427228, 1.948141)">
                    <mask id="mask-6" fill="white">
                        <use xlink:href="#path-5"></use>
                    </mask>
                    <g id="Clip-14"></g>
                    <path d="M6.40419062,10.7891726 C7.09609595,11.516733 7.95816244,12.1269449 8.9907029,12.6198084 C10.0929969,12.0803185 11.0019828,11.4697936 11.7176607,10.7891726 L6.40419062,10.7891726 Z M15.1130641,1.37250743 C13.3416989,1.56026495 11.1896606,1.73049843 8.6560109,1.88289494 C6.12267399,2.03560439 3.69474942,2.15326576 1.37223719,2.23494028 L1.26713765,0.792023783 C3.6127968,0.720988856 6.05511,0.615844648 8.59470283,0.474713583 C11.1339829,0.334208376 13.2422297,0.175866205 14.9194432,0 L15.1130641,1.37250743 Z M2.49861652,5.35046331 L2.49861652,6.5295805 L0.985308218,6.5295805 L0.985308218,3.99516698 L3.36068302,3.99516698 C3.161119,3.45567706 2.99095784,3.03885537 2.85051232,2.74532779 L4.36319503,2.37607135 C4.76169746,3.3264373 4.99066433,3.86624016 5.04947002,3.99516698 L7.60094911,3.99516698 C7.33069314,3.17404079 7.16084478,2.66897307 7.09015282,2.48121556 L8.6388071,2.11195911 C8.8145986,2.52252221 9.03730954,3.15025817 9.30725271,3.99516698 L11.172144,3.99516698 C11.5825327,3.36117244 11.9988645,2.65176197 12.4214523,1.86505798 L13.9516516,2.32287339 C13.6935947,2.80415848 13.3714145,3.36117244 12.9841727,3.99516698 L15.4649599,3.99516698 L15.4649599,6.5295805 L13.8991018,6.5295805 L13.8991018,5.35046331 L2.49861652,5.35046331 Z M15.535339,15.9462457 C12.8140116,15.4649606 10.6444567,14.86664 9.02542328,14.1509709 C7.32475002,14.9135794 5.21931839,15.5475739 2.7094412,16.0520158 L2.11137475,14.5559013 C4.04664521,14.2739521 5.80018105,13.8518106 7.37198225,13.2882252 C6.39824749,12.6899046 5.52429474,11.9272961 4.7504368,11.0000869 C4.29281587,11.6456598 3.74729919,12.2793415 3.11419956,12.9014447 C2.48078714,13.523235 1.72413298,14.186019 0.844237105,14.8901097 L0,13.5172893 C1.12606654,12.6723805 2.04975389,11.8362337 2.77106207,11.0091619 C3.49268304,10.1817771 4.06979214,9.28711253 4.50426614,8.3251682 L1.07351676,8.3251682 L1.07351676,6.98708298 L5.01412404,6.98708298 C5.10827572,6.72922932 5.22557432,6.31866623 5.36601984,5.75508075 L6.96722389,5.91342292 C6.86181155,6.34808157 6.76765988,6.70544671 6.68570726,6.98708298 L15.4296139,6.98708298 L15.4296139,8.3251682 L6.22808633,8.3251682 C6.06386829,8.73604423 5.88807679,9.11719198 5.70039904,9.46923732 L13.934135,9.46923732 L13.934135,10.7012395 C13.0545519,11.6869665 11.9816607,12.5493993 10.7145231,13.2882252 C12.0044949,13.7113054 13.7818032,14.0868205 16.0455097,14.4150832 L15.535339,15.9462457 Z" id="Fill-13" fill="#005DBE" mask="url(#mask-6)"></path>
                </g>
                <path d="M113.71708,9.14682638 L113.71708,10.5550077 L98.7629167,10.5550077 L98.7629167,9.14682638 L105.377619,9.14682638 L105.377619,7.82689105 L99.6775329,7.82689105 L99.6775329,6.45344483 L105.377619,6.45344483 L105.377619,5.1162984 L99.0794665,5.1162984 L99.0794665,3.72532814 L102.914661,3.72532814 C102.23433,2.9627197 101.794538,2.48206046 101.594974,2.28241164 L102.773903,1.38461779 L104.621278,3.30318666 L104.041041,3.72532814 L107.594719,3.72532814 C108.403923,2.77496219 109.031079,1.98919699 109.47744,1.36678083 L110.885023,2.14128058 C110.555961,2.5875176 110.128056,3.11574208 109.600369,3.72532814 L113.40053,3.72532814 L113.40053,5.1162984 L107.102065,5.1162984 L107.102065,6.45344483 L112.802464,6.45344483 L112.802464,7.82689105 L107.102065,7.82689105 L107.102065,9.14682638 L113.71708,9.14682638 Z M107.559686,13.5472367 C108.685752,14.849648 110.9138,15.7414961 114.244768,16.2221554 L113.576635,17.8240399 C109.975724,17.2022496 107.530283,16.0231324 106.240311,14.2860625 C105.723572,15.0846578 104.879335,15.7856192 103.706349,16.3895725 C102.533676,16.9938388 100.932472,17.4898315 98.9033622,17.876612 L98.2174,16.3100885 C100.082291,16.0171868 101.522092,15.6357261 102.536491,15.1663323 C103.550889,14.6972514 104.269382,14.1574486 104.691657,13.5472367 L98.5164332,13.5472367 L98.5164332,12.1562664 L105.237174,12.1562664 L105.27252,11.769173 C105.319126,11.3470315 105.342899,11.071028 105.342899,10.9417882 L107.102065,10.9417882 C107.102065,11.071028 107.078605,11.3470315 107.031999,11.769173 L106.996653,12.1562664 L113.963877,12.1562664 L113.963877,13.5472367 L107.559686,13.5472367 Z" id="Fill-15" fill="#005DBE"></path>
                <path d="M122.127202,7.52735523 C122.947979,8.14914553 123.862908,8.68331566 124.871989,9.12892683 C125.927677,8.68331566 126.883582,8.14914553 127.739705,7.52735523 L122.127202,7.52735523 Z M121.053998,15.7473792 L128.953355,15.7473792 L128.953355,13.8284974 L121.053998,13.8284974 L121.053998,15.7473792 Z M121.053998,17.7538812 L119.452794,17.7538812 L119.452794,12.4203161 L130.554559,12.4203161 L130.554559,17.7538812 L128.953355,17.7538812 L128.953355,17.0845257 L121.053998,17.0845257 L121.053998,17.7538812 Z M119.43559,4.69346847 L119.43559,6.61235027 L117.79904,6.61235027 L117.79904,3.21487804 L124.238577,3.21487804 C124.074046,2.83998887 123.839449,2.38217347 123.534785,1.84237061 L125.346814,1.40239217 C125.65179,2.07080892 125.903904,2.67570105 126.103468,3.21487804 L132.208313,3.21487804 L132.208313,6.62956138 L130.572388,6.62956138 L130.572388,4.69346847 L119.43559,4.69346847 Z M133,11.0121347 L132.68345,12.5614471 C129.586767,12.1271014 127.012141,11.4818414 124.959885,10.6253542 C122.707752,11.5991899 120.098093,12.3092262 117.130595,12.7551503 L116.70832,11.1883138 C119.042405,10.9069905 121.1885,10.4375967 123.147543,9.7804454 C122.373373,9.35767807 121.617031,8.8767059 120.877894,8.33721597 C120.197875,8.8767059 119.464367,9.36393665 118.678623,9.79765651 L117.834386,8.53091914 C118.608244,8.16698249 119.446851,7.62436328 120.350206,6.90274856 C121.253249,6.18082092 121.945467,5.49175084 122.426548,4.83459954 L123.816302,5.36251108 C123.687117,5.5502686 123.470349,5.82032649 123.16506,6.17237183 L130.185146,6.17237183 L130.185146,7.49230716 C129.141345,8.34879435 127.979933,9.11734845 126.701535,9.79765651 C128.355288,10.325881 130.454777,10.7308114 133,11.0121347 L133,11.0121347 Z" id="Fill-17" fill="#005DBE"></path>
            </g>
        </g>
    </g>
</svg>